<?xml version="1.0" encoding="utf-8" standalone="no"?>
<!DOCTYPE svg PUBLIC "-//W3C//DTD SVG 1.1//EN"
  "http://www.w3.org/Graphics/SVG/1.1/DTD/svg11.dtd">
<!-- Created with matplotlib (https://matplotlib.org/) -->
<svg height="244.8pt" version="1.1" viewBox="0 0 576 244.8" width="576pt" xmlns="http://www.w3.org/2000/svg" xmlns:xlink="http://www.w3.org/1999/xlink">
 <defs>
  <style type="text/css">
*{stroke-linecap:butt;stroke-linejoin:round;}
  </style>
 </defs>
 <g id="figure_1">
  <g id="patch_1">
   <path d="M 0 244.8 
L 576 244.8 
L 576 0 
L 0 0 
z
" style="fill:#ffffff;"/>
  </g>
  <g id="axes_1">
   <g id="patch_2">
    <path d="M 72 217.872 
L 518.4 217.872 
L 518.4 29.376 
L 72 29.376 
z
" style="fill:#ffffff;"/>
   </g>
   <g id="LineCollection_1">
    <path clip-path="url(#pfbaa943ff0)" d="M 471.297816 92.908586 
L 154.321748 109.745183 
" style="fill:none;"/>
    <path clip-path="url(#pfbaa943ff0)" d="M 177.451013 96.093888 
L 154.321748 109.745183 
" style="fill:none;"/>
    <path clip-path="url(#pfbaa943ff0)" d="M 177.451013 96.093888 
L 164.83505 104.284665 
" style="fill:none;"/>
    <path clip-path="url(#pfbaa943ff0)" d="M 177.451013 96.093888 
L 164.83505 108.835097 
" style="fill:none;"/>
    <path clip-path="url(#pfbaa943ff0)" d="M 177.451013 96.093888 
L 170.617366 104.284665 
" style="fill:none;"/>
    <path clip-path="url(#pfbaa943ff0)" d="M 164.83505 104.284665 
L 154.321748 109.745183 
" style="fill:none;"/>
    <path clip-path="url(#pfbaa943ff0)" d="M 164.83505 104.284665 
L 164.83505 108.835097 
" style="fill:none;"/>
    <path clip-path="url(#pfbaa943ff0)" d="M 164.83505 104.284665 
L 170.617366 104.284665 
" style="fill:none;"/>
    <path clip-path="url(#pfbaa943ff0)" d="M 170.617366 104.284665 
L 154.321748 109.745183 
" style="fill:none;"/>
    <path clip-path="url(#pfbaa943ff0)" d="M 164.83505 108.835097 
L 154.321748 109.745183 
" style="fill:none;"/>
    <path clip-path="url(#pfbaa943ff0)" d="M 154.321748 109.745183 
L 153.270417 154.339414 
" style="fill:none;"/>
    <path clip-path="url(#pfbaa943ff0)" d="M 154.321748 109.745183 
L 149.590761 134.317515 
" style="fill:none;"/>
    <path clip-path="url(#pfbaa943ff0)" d="M 154.321748 109.745183 
L 132.243812 129.31204 
" style="fill:none;"/>
    <path clip-path="url(#pfbaa943ff0)" d="M 154.321748 109.745183 
L 119.102184 150.699069 
" style="fill:none;"/>
    <path clip-path="url(#pfbaa943ff0)" d="M 154.321748 109.745183 
L 126.461496 145.693594 
" style="fill:none;"/>
    <path clip-path="url(#pfbaa943ff0)" d="M 154.321748 109.745183 
L 155.898743 113.385529 
" style="fill:none;"/>
    <path clip-path="url(#pfbaa943ff0)" d="M 154.321748 109.745183 
L 150.642092 113.840572 
" style="fill:none;"/>
    <path clip-path="url(#pfbaa943ff0)" d="M 132.243812 129.31204 
L 126.461496 145.693594 
" style="fill:none;"/>
    <path clip-path="url(#pfbaa943ff0)" d="M 132.243812 129.31204 
L 119.102184 150.699069 
" style="fill:none;"/>
    <path clip-path="url(#pfbaa943ff0)" d="M 126.461496 145.693594 
L 119.102184 150.699069 
" style="fill:none;"/>
   </g>
   <g id="LineCollection_2">
    <path clip-path="url(#pfbaa943ff0)" d="M 471.297816 92.908586 
L 154.321748 109.745183 
" style="fill:none;stroke:#000000;stroke-opacity:0.7;stroke-width:2.416;"/>
   </g>
   <g id="LineCollection_3">
    <path clip-path="url(#pfbaa943ff0)" d="M 177.451013 96.093888 
L 154.321748 109.745183 
" style="fill:none;stroke:#000000;stroke-opacity:0.7;stroke-width:0.212;"/>
   </g>
   <g id="LineCollection_4">
    <path clip-path="url(#pfbaa943ff0)" d="M 177.451013 96.093888 
L 164.83505 104.284665 
" style="fill:none;stroke:#000000;stroke-opacity:0.7;stroke-width:0.12;"/>
   </g>
   <g id="LineCollection_5">
    <path clip-path="url(#pfbaa943ff0)" d="M 177.451013 96.093888 
L 164.83505 108.835097 
" style="fill:none;stroke:#000000;stroke-opacity:0.7;stroke-width:0.148;"/>
   </g>
   <g id="LineCollection_6">
    <path clip-path="url(#pfbaa943ff0)" d="M 177.451013 96.093888 
L 170.617366 104.284665 
" style="fill:none;stroke:#000000;stroke-opacity:0.7;stroke-width:0.088;"/>
   </g>
   <g id="LineCollection_7">
    <path clip-path="url(#pfbaa943ff0)" d="M 164.83505 104.284665 
L 154.321748 109.745183 
" style="fill:none;stroke:#000000;stroke-opacity:0.7;stroke-width:0.092;"/>
   </g>
   <g id="LineCollection_8">
    <path clip-path="url(#pfbaa943ff0)" d="M 164.83505 104.284665 
L 164.83505 108.835097 
" style="fill:none;stroke:#000000;stroke-opacity:0.7;stroke-width:0.04;"/>
   </g>
   <g id="LineCollection_9">
    <path clip-path="url(#pfbaa943ff0)" d="M 164.83505 104.284665 
L 170.617366 104.284665 
" style="fill:none;stroke:#000000;stroke-opacity:0.7;stroke-width:0.044;"/>
   </g>
   <g id="LineCollection_10">
    <path clip-path="url(#pfbaa943ff0)" d="M 170.617366 104.284665 
L 154.321748 109.745183 
" style="fill:none;stroke:#000000;stroke-opacity:0.7;stroke-width:0.132;"/>
   </g>
   <g id="LineCollection_11">
    <path clip-path="url(#pfbaa943ff0)" d="M 164.83505 108.835097 
L 154.321748 109.745183 
" style="fill:none;stroke:#000000;stroke-opacity:0.7;stroke-width:0.08;"/>
   </g>
   <g id="LineCollection_12">
    <path clip-path="url(#pfbaa943ff0)" d="M 154.321748 109.745183 
L 153.270417 154.339414 
" style="fill:none;stroke:#000000;stroke-opacity:0.7;stroke-width:0.392;"/>
   </g>
   <g id="LineCollection_13">
    <path clip-path="url(#pfbaa943ff0)" d="M 154.321748 109.745183 
L 149.590761 134.317515 
" style="fill:none;stroke:#000000;stroke-opacity:0.7;stroke-width:0.22;"/>
   </g>
   <g id="LineCollection_14">
    <path clip-path="url(#pfbaa943ff0)" d="M 154.321748 109.745183 
L 132.243812 129.31204 
" style="fill:none;stroke:#000000;stroke-opacity:0.7;stroke-width:0.24;"/>
   </g>
   <g id="LineCollection_15">
    <path clip-path="url(#pfbaa943ff0)" d="M 154.321748 109.745183 
L 119.102184 150.699069 
" style="fill:none;stroke:#000000;stroke-opacity:0.7;stroke-width:0.448;"/>
   </g>
   <g id="LineCollection_16">
    <path clip-path="url(#pfbaa943ff0)" d="M 154.321748 109.745183 
L 126.461496 145.693594 
" style="fill:none;stroke:#000000;stroke-opacity:0.7;stroke-width:0.38;"/>
   </g>
   <g id="LineCollection_17">
    <path clip-path="url(#pfbaa943ff0)" d="M 154.321748 109.745183 
L 155.898743 113.385529 
" style="fill:none;stroke:#000000;stroke-opacity:0.7;stroke-width:0.036;"/>
   </g>
   <g id="LineCollection_18">
    <path clip-path="url(#pfbaa943ff0)" d="M 154.321748 109.745183 
L 150.642092 113.840572 
" style="fill:none;stroke:#000000;stroke-opacity:0.7;stroke-width:0.044;"/>
   </g>
   <g id="LineCollection_19">
    <path clip-path="url(#pfbaa943ff0)" d="M 132.243812 129.31204 
L 126.461496 145.693594 
" style="fill:none;stroke:#000000;stroke-opacity:0.7;stroke-width:0.152;"/>
   </g>
   <g id="LineCollection_20">
    <path clip-path="url(#pfbaa943ff0)" d="M 132.243812 129.31204 
L 119.102184 150.699069 
" style="fill:none;stroke:#000000;stroke-opacity:0.7;stroke-width:0.212;"/>
   </g>
   <g id="LineCollection_21">
    <path clip-path="url(#pfbaa943ff0)" d="M 126.461496 145.693594 
L 119.102184 150.699069 
" style="fill:none;stroke:#000000;stroke-opacity:0.7;stroke-width:0.072;"/>
   </g>
   <g id="matplotlib.axis_1">
    <g id="xtick_1"/>
    <g id="xtick_2"/>
    <g id="xtick_3"/>
    <g id="xtick_4"/>
    <g id="xtick_5"/>
    <g id="xtick_6"/>
    <g id="xtick_7"/>
    <g id="xtick_8"/>
    <g id="xtick_9"/>
   </g>
   <g id="matplotlib.axis_2">
    <g id="ytick_1"/>
    <g id="ytick_2"/>
    <g id="ytick_3"/>
    <g id="ytick_4"/>
    <g id="ytick_5"/>
    <g id="ytick_6"/>
    <g id="ytick_7"/>
    <g id="ytick_8"/>
    <g id="ytick_9"/>
   </g>
   <g id="PathCollection_1">
    <defs>
     <path d="M 0 3.162278 
C 0.838646 3.162278 1.643056 2.82908 2.236068 2.236068 
C 2.82908 1.643056 3.162278 0.838646 3.162278 0 
C 3.162278 -0.838646 2.82908 -1.643056 2.236068 -2.236068 
C 1.643056 -2.82908 0.838646 -3.162278 0 -3.162278 
C -0.838646 -3.162278 -1.643056 -2.82908 -2.236068 -2.236068 
C -2.82908 -1.643056 -3.162278 -0.838646 -3.162278 0 
C -3.162278 0.838646 -2.82908 1.643056 -2.236068 2.236068 
C -1.643056 2.82908 -0.838646 3.162278 0 3.162278 
z
" id="m77d8c26a1a" style="stroke:#1f78b4;"/>
    </defs>
    <g clip-path="url(#pfbaa943ff0)">
     <use style="fill:#1f78b4;stroke:#1f78b4;" x="471.297816" xlink:href="#m77d8c26a1a" y="92.908586"/>
     <use style="fill:#1f78b4;stroke:#1f78b4;" x="177.451013" xlink:href="#m77d8c26a1a" y="96.093888"/>
     <use style="fill:#1f78b4;stroke:#1f78b4;" x="164.83505" xlink:href="#m77d8c26a1a" y="104.284665"/>
     <use style="fill:#1f78b4;stroke:#1f78b4;" x="170.617366" xlink:href="#m77d8c26a1a" y="104.284665"/>
     <use style="fill:#1f78b4;stroke:#1f78b4;" x="164.83505" xlink:href="#m77d8c26a1a" y="108.835097"/>
     <use style="fill:#1f78b4;stroke:#1f78b4;" x="154.321748" xlink:href="#m77d8c26a1a" y="109.745183"/>
     <use style="fill:#1f78b4;stroke:#1f78b4;" x="155.898743" xlink:href="#m77d8c26a1a" y="113.385529"/>
     <use style="fill:#1f78b4;stroke:#1f78b4;" x="150.642092" xlink:href="#m77d8c26a1a" y="113.840572"/>
     <use style="fill:#1f78b4;stroke:#1f78b4;" x="132.243812" xlink:href="#m77d8c26a1a" y="129.31204"/>
     <use style="fill:#1f78b4;stroke:#1f78b4;" x="149.590761" xlink:href="#m77d8c26a1a" y="134.317515"/>
     <use style="fill:#1f78b4;stroke:#1f78b4;" x="126.461496" xlink:href="#m77d8c26a1a" y="145.693594"/>
     <use style="fill:#1f78b4;stroke:#1f78b4;" x="119.102184" xlink:href="#m77d8c26a1a" y="150.699069"/>
     <use style="fill:#1f78b4;stroke:#1f78b4;" x="153.270417" xlink:href="#m77d8c26a1a" y="154.339414"/>
    </g>
   </g>
   <g id="patch_3">
    <path d="M 72 217.872 
L 72 29.376 
" style="fill:none;stroke:#000000;stroke-linecap:square;stroke-linejoin:miter;stroke-width:0.8;"/>
   </g>
   <g id="patch_4">
    <path d="M 518.4 217.872 
L 518.4 29.376 
" style="fill:none;stroke:#000000;stroke-linecap:square;stroke-linejoin:miter;stroke-width:0.8;"/>
   </g>
   <g id="patch_5">
    <path d="M 72 217.872 
L 518.4 217.872 
" style="fill:none;stroke:#000000;stroke-linecap:square;stroke-linejoin:miter;stroke-width:0.8;"/>
   </g>
   <g id="patch_6">
    <path d="M 72 29.376 
L 518.4 29.376 
" style="fill:none;stroke:#000000;stroke-linecap:square;stroke-linejoin:miter;stroke-width:0.8;"/>
   </g>
   <g id="text_1">
    <g clip-path="url(#pfbaa943ff0)">
     <!-- Anchorage Intl -->
     <defs>
      <path d="M 34.1875 63.1875 
L 20.796875 26.90625 
L 47.609375 26.90625 
z
M 28.609375 72.90625 
L 39.796875 72.90625 
L 67.578125 0 
L 57.328125 0 
L 50.6875 18.703125 
L 17.828125 18.703125 
L 11.1875 0 
L 0.78125 0 
z
" id="DejaVuSans-65"/>
      <path d="M 54.890625 33.015625 
L 54.890625 0 
L 45.90625 0 
L 45.90625 32.71875 
Q 45.90625 40.484375 42.875 44.328125 
Q 39.84375 48.1875 33.796875 48.1875 
Q 26.515625 48.1875 22.3125 43.546875 
Q 18.109375 38.921875 18.109375 30.90625 
L 18.109375 0 
L 9.078125 0 
L 9.078125 54.6875 
L 18.109375 54.6875 
L 18.109375 46.1875 
Q 21.34375 51.125 25.703125 53.5625 
Q 30.078125 56 35.796875 56 
Q 45.21875 56 50.046875 50.171875 
Q 54.890625 44.34375 54.890625 33.015625 
z
" id="DejaVuSans-110"/>
      <path d="M 48.78125 52.59375 
L 48.78125 44.1875 
Q 44.96875 46.296875 41.140625 47.34375 
Q 37.3125 48.390625 33.40625 48.390625 
Q 24.65625 48.390625 19.8125 42.84375 
Q 14.984375 37.3125 14.984375 27.296875 
Q 14.984375 17.28125 19.8125 11.734375 
Q 24.65625 6.203125 33.40625 6.203125 
Q 37.3125 6.203125 41.140625 7.25 
Q 44.96875 8.296875 48.78125 10.40625 
L 48.78125 2.09375 
Q 45.015625 0.34375 40.984375 -0.53125 
Q 36.96875 -1.421875 32.421875 -1.421875 
Q 20.0625 -1.421875 12.78125 6.34375 
Q 5.515625 14.109375 5.515625 27.296875 
Q 5.515625 40.671875 12.859375 48.328125 
Q 20.21875 56 33.015625 56 
Q 37.15625 56 41.109375 55.140625 
Q 45.0625 54.296875 48.78125 52.59375 
z
" id="DejaVuSans-99"/>
      <path d="M 54.890625 33.015625 
L 54.890625 0 
L 45.90625 0 
L 45.90625 32.71875 
Q 45.90625 40.484375 42.875 44.328125 
Q 39.84375 48.1875 33.796875 48.1875 
Q 26.515625 48.1875 22.3125 43.546875 
Q 18.109375 38.921875 18.109375 30.90625 
L 18.109375 0 
L 9.078125 0 
L 9.078125 75.984375 
L 18.109375 75.984375 
L 18.109375 46.1875 
Q 21.34375 51.125 25.703125 53.5625 
Q 30.078125 56 35.796875 56 
Q 45.21875 56 50.046875 50.171875 
Q 54.890625 44.34375 54.890625 33.015625 
z
" id="DejaVuSans-104"/>
      <path d="M 30.609375 48.390625 
Q 23.390625 48.390625 19.1875 42.75 
Q 14.984375 37.109375 14.984375 27.296875 
Q 14.984375 17.484375 19.15625 11.84375 
Q 23.34375 6.203125 30.609375 6.203125 
Q 37.796875 6.203125 41.984375 11.859375 
Q 46.1875 17.53125 46.1875 27.296875 
Q 46.1875 37.015625 41.984375 42.703125 
Q 37.796875 48.390625 30.609375 48.390625 
z
M 30.609375 56 
Q 42.328125 56 49.015625 48.375 
Q 55.71875 40.765625 55.71875 27.296875 
Q 55.71875 13.875 49.015625 6.21875 
Q 42.328125 -1.421875 30.609375 -1.421875 
Q 18.84375 -1.421875 12.171875 6.21875 
Q 5.515625 13.875 5.515625 27.296875 
Q 5.515625 40.765625 12.171875 48.375 
Q 18.84375 56 30.609375 56 
z
" id="DejaVuSans-111"/>
      <path d="M 41.109375 46.296875 
Q 39.59375 47.171875 37.8125 47.578125 
Q 36.03125 48 33.890625 48 
Q 26.265625 48 22.1875 43.046875 
Q 18.109375 38.09375 18.109375 28.8125 
L 18.109375 0 
L 9.078125 0 
L 9.078125 54.6875 
L 18.109375 54.6875 
L 18.109375 46.1875 
Q 20.953125 51.171875 25.484375 53.578125 
Q 30.03125 56 36.53125 56 
Q 37.453125 56 38.578125 55.875 
Q 39.703125 55.765625 41.0625 55.515625 
z
" id="DejaVuSans-114"/>
      <path d="M 34.28125 27.484375 
Q 23.390625 27.484375 19.1875 25 
Q 14.984375 22.515625 14.984375 16.5 
Q 14.984375 11.71875 18.140625 8.90625 
Q 21.296875 6.109375 26.703125 6.109375 
Q 34.1875 6.109375 38.703125 11.40625 
Q 43.21875 16.703125 43.21875 25.484375 
L 43.21875 27.484375 
z
M 52.203125 31.203125 
L 52.203125 0 
L 43.21875 0 
L 43.21875 8.296875 
Q 40.140625 3.328125 35.546875 0.953125 
Q 30.953125 -1.421875 24.3125 -1.421875 
Q 15.921875 -1.421875 10.953125 3.296875 
Q 6 8.015625 6 15.921875 
Q 6 25.140625 12.171875 29.828125 
Q 18.359375 34.515625 30.609375 34.515625 
L 43.21875 34.515625 
L 43.21875 35.40625 
Q 43.21875 41.609375 39.140625 45 
Q 35.0625 48.390625 27.6875 48.390625 
Q 23 48.390625 18.546875 47.265625 
Q 14.109375 46.140625 10.015625 43.890625 
L 10.015625 52.203125 
Q 14.9375 54.109375 19.578125 55.046875 
Q 24.21875 56 28.609375 56 
Q 40.484375 56 46.34375 49.84375 
Q 52.203125 43.703125 52.203125 31.203125 
z
" id="DejaVuSans-97"/>
      <path d="M 45.40625 27.984375 
Q 45.40625 37.75 41.375 43.109375 
Q 37.359375 48.484375 30.078125 48.484375 
Q 22.859375 48.484375 18.828125 43.109375 
Q 14.796875 37.75 14.796875 27.984375 
Q 14.796875 18.265625 18.828125 12.890625 
Q 22.859375 7.515625 30.078125 7.515625 
Q 37.359375 7.515625 41.375 12.890625 
Q 45.40625 18.265625 45.40625 27.984375 
z
M 54.390625 6.78125 
Q 54.390625 -7.171875 48.1875 -13.984375 
Q 42 -20.796875 29.203125 -20.796875 
Q 24.46875 -20.796875 20.265625 -20.09375 
Q 16.0625 -19.390625 12.109375 -17.921875 
L 12.109375 -9.1875 
Q 16.0625 -11.328125 19.921875 -12.34375 
Q 23.78125 -13.375 27.78125 -13.375 
Q 36.625 -13.375 41.015625 -8.765625 
Q 45.40625 -4.15625 45.40625 5.171875 
L 45.40625 9.625 
Q 42.625 4.78125 38.28125 2.390625 
Q 33.9375 0 27.875 0 
Q 17.828125 0 11.671875 7.65625 
Q 5.515625 15.328125 5.515625 27.984375 
Q 5.515625 40.671875 11.671875 48.328125 
Q 17.828125 56 27.875 56 
Q 33.9375 56 38.28125 53.609375 
Q 42.625 51.21875 45.40625 46.390625 
L 45.40625 54.6875 
L 54.390625 54.6875 
z
" id="DejaVuSans-103"/>
      <path d="M 56.203125 29.59375 
L 56.203125 25.203125 
L 14.890625 25.203125 
Q 15.484375 15.921875 20.484375 11.0625 
Q 25.484375 6.203125 34.421875 6.203125 
Q 39.59375 6.203125 44.453125 7.46875 
Q 49.3125 8.734375 54.109375 11.28125 
L 54.109375 2.78125 
Q 49.265625 0.734375 44.1875 -0.34375 
Q 39.109375 -1.421875 33.890625 -1.421875 
Q 20.796875 -1.421875 13.15625 6.1875 
Q 5.515625 13.8125 5.515625 26.8125 
Q 5.515625 40.234375 12.765625 48.109375 
Q 20.015625 56 32.328125 56 
Q 43.359375 56 49.78125 48.890625 
Q 56.203125 41.796875 56.203125 29.59375 
z
M 47.21875 32.234375 
Q 47.125 39.59375 43.09375 43.984375 
Q 39.0625 48.390625 32.421875 48.390625 
Q 24.90625 48.390625 20.390625 44.140625 
Q 15.875 39.890625 15.1875 32.171875 
z
" id="DejaVuSans-101"/>
      <path id="DejaVuSans-32"/>
      <path d="M 9.8125 72.90625 
L 19.671875 72.90625 
L 19.671875 0 
L 9.8125 0 
z
" id="DejaVuSans-73"/>
      <path d="M 18.3125 70.21875 
L 18.3125 54.6875 
L 36.8125 54.6875 
L 36.8125 47.703125 
L 18.3125 47.703125 
L 18.3125 18.015625 
Q 18.3125 11.328125 20.140625 9.421875 
Q 21.96875 7.515625 27.59375 7.515625 
L 36.8125 7.515625 
L 36.8125 0 
L 27.59375 0 
Q 17.1875 0 13.234375 3.875 
Q 9.28125 7.765625 9.28125 18.015625 
L 9.28125 47.703125 
L 2.6875 47.703125 
L 2.6875 54.6875 
L 9.28125 54.6875 
L 9.28125 70.21875 
z
" id="DejaVuSans-116"/>
      <path d="M 9.421875 75.984375 
L 18.40625 75.984375 
L 18.40625 0 
L 9.421875 0 
z
" id="DejaVuSans-108"/>
     </defs>
     <g transform="translate(427.475316 96.219836)scale(0.12 -0.12)">
      <use xlink:href="#DejaVuSans-65"/>
      <use x="68.408203" xlink:href="#DejaVuSans-110"/>
      <use x="131.787109" xlink:href="#DejaVuSans-99"/>
      <use x="186.767578" xlink:href="#DejaVuSans-104"/>
      <use x="250.146484" xlink:href="#DejaVuSans-111"/>
      <use x="311.328125" xlink:href="#DejaVuSans-114"/>
      <use x="352.441406" xlink:href="#DejaVuSans-97"/>
      <use x="413.720703" xlink:href="#DejaVuSans-103"/>
      <use x="477.197266" xlink:href="#DejaVuSans-101"/>
      <use x="538.720703" xlink:href="#DejaVuSans-32"/>
      <use x="570.507812" xlink:href="#DejaVuSans-73"/>
      <use x="600" xlink:href="#DejaVuSans-110"/>
      <use x="663.378906" xlink:href="#DejaVuSans-116"/>
      <use x="702.587891" xlink:href="#DejaVuSans-108"/>
     </g>
    </g>
   </g>
   <g id="text_2">
    <g clip-path="url(#pfbaa943ff0)">
     <!-- Tuluksak -->
     <defs>
      <path d="M -0.296875 72.90625 
L 61.375 72.90625 
L 61.375 64.59375 
L 35.5 64.59375 
L 35.5 0 
L 25.59375 0 
L 25.59375 64.59375 
L -0.296875 64.59375 
z
" id="DejaVuSans-84"/>
      <path d="M 8.5 21.578125 
L 8.5 54.6875 
L 17.484375 54.6875 
L 17.484375 21.921875 
Q 17.484375 14.15625 20.5 10.265625 
Q 23.53125 6.390625 29.59375 6.390625 
Q 36.859375 6.390625 41.078125 11.03125 
Q 45.3125 15.671875 45.3125 23.6875 
L 45.3125 54.6875 
L 54.296875 54.6875 
L 54.296875 0 
L 45.3125 0 
L 45.3125 8.40625 
Q 42.046875 3.421875 37.71875 1 
Q 33.40625 -1.421875 27.6875 -1.421875 
Q 18.265625 -1.421875 13.375 4.4375 
Q 8.5 10.296875 8.5 21.578125 
z
M 31.109375 56 
z
" id="DejaVuSans-117"/>
      <path d="M 9.078125 75.984375 
L 18.109375 75.984375 
L 18.109375 31.109375 
L 44.921875 54.6875 
L 56.390625 54.6875 
L 27.390625 29.109375 
L 57.625 0 
L 45.90625 0 
L 18.109375 26.703125 
L 18.109375 0 
L 9.078125 0 
z
" id="DejaVuSans-107"/>
      <path d="M 44.28125 53.078125 
L 44.28125 44.578125 
Q 40.484375 46.53125 36.375 47.5 
Q 32.28125 48.484375 27.875 48.484375 
Q 21.1875 48.484375 17.84375 46.4375 
Q 14.5 44.390625 14.5 40.28125 
Q 14.5 37.15625 16.890625 35.375 
Q 19.28125 33.59375 26.515625 31.984375 
L 29.59375 31.296875 
Q 39.15625 29.25 43.1875 25.515625 
Q 47.21875 21.78125 47.21875 15.09375 
Q 47.21875 7.46875 41.1875 3.015625 
Q 35.15625 -1.421875 24.609375 -1.421875 
Q 20.21875 -1.421875 15.453125 -0.5625 
Q 10.6875 0.296875 5.421875 2 
L 5.421875 11.28125 
Q 10.40625 8.6875 15.234375 7.390625 
Q 20.0625 6.109375 24.8125 6.109375 
Q 31.15625 6.109375 34.5625 8.28125 
Q 37.984375 10.453125 37.984375 14.40625 
Q 37.984375 18.0625 35.515625 20.015625 
Q 33.0625 21.96875 24.703125 23.78125 
L 21.578125 24.515625 
Q 13.234375 26.265625 9.515625 29.90625 
Q 5.8125 33.546875 5.8125 39.890625 
Q 5.8125 47.609375 11.28125 51.796875 
Q 16.75 56 26.8125 56 
Q 31.78125 56 36.171875 55.265625 
Q 40.578125 54.546875 44.28125 53.078125 
z
" id="DejaVuSans-115"/>
     </defs>
     <g transform="translate(150.777263 99.405138)scale(0.12 -0.12)">
      <use xlink:href="#DejaVuSans-84"/>
      <use x="60.849609" xlink:href="#DejaVuSans-117"/>
      <use x="124.228516" xlink:href="#DejaVuSans-108"/>
      <use x="152.011719" xlink:href="#DejaVuSans-117"/>
      <use x="215.390625" xlink:href="#DejaVuSans-107"/>
      <use x="273.300781" xlink:href="#DejaVuSans-115"/>
      <use x="325.400391" xlink:href="#DejaVuSans-97"/>
      <use x="386.679688" xlink:href="#DejaVuSans-107"/>
     </g>
    </g>
   </g>
   <g id="text_3">
    <g clip-path="url(#pfbaa943ff0)">
     <!-- Akiachak -->
     <defs>
      <path d="M 9.421875 54.6875 
L 18.40625 54.6875 
L 18.40625 0 
L 9.421875 0 
z
M 9.421875 75.984375 
L 18.40625 75.984375 
L 18.40625 64.59375 
L 9.421875 64.59375 
z
" id="DejaVuSans-105"/>
     </defs>
     <g transform="translate(137.659737 107.595915)scale(0.12 -0.12)">
      <use xlink:href="#DejaVuSans-65"/>
      <use x="68.408203" xlink:href="#DejaVuSans-107"/>
      <use x="126.318359" xlink:href="#DejaVuSans-105"/>
      <use x="154.101562" xlink:href="#DejaVuSans-97"/>
      <use x="215.380859" xlink:href="#DejaVuSans-99"/>
      <use x="270.361328" xlink:href="#DejaVuSans-104"/>
      <use x="333.740234" xlink:href="#DejaVuSans-97"/>
      <use x="395.019531" xlink:href="#DejaVuSans-107"/>
     </g>
    </g>
   </g>
   <g id="text_4">
    <g clip-path="url(#pfbaa943ff0)">
     <!-- Akiak -->
     <g transform="translate(154.220491 107.595915)scale(0.12 -0.12)">
      <use xlink:href="#DejaVuSans-65"/>
      <use x="68.408203" xlink:href="#DejaVuSans-107"/>
      <use x="126.318359" xlink:href="#DejaVuSans-105"/>
      <use x="154.101562" xlink:href="#DejaVuSans-97"/>
      <use x="215.380859" xlink:href="#DejaVuSans-107"/>
     </g>
    </g>
   </g>
   <g id="text_5">
    <g clip-path="url(#pfbaa943ff0)">
     <!-- Kwethluk -->
     <defs>
      <path d="M 9.8125 72.90625 
L 19.671875 72.90625 
L 19.671875 42.09375 
L 52.390625 72.90625 
L 65.09375 72.90625 
L 28.90625 38.921875 
L 67.671875 0 
L 54.6875 0 
L 19.671875 35.109375 
L 19.671875 0 
L 9.8125 0 
z
" id="DejaVuSans-75"/>
      <path d="M 4.203125 54.6875 
L 13.1875 54.6875 
L 24.421875 12.015625 
L 35.59375 54.6875 
L 46.1875 54.6875 
L 57.421875 12.015625 
L 68.609375 54.6875 
L 77.59375 54.6875 
L 63.28125 0 
L 52.6875 0 
L 40.921875 44.828125 
L 29.109375 0 
L 18.5 0 
z
" id="DejaVuSans-119"/>
     </defs>
     <g transform="translate(137.203175 112.146347)scale(0.12 -0.12)">
      <use xlink:href="#DejaVuSans-75"/>
      <use x="65.576172" xlink:href="#DejaVuSans-119"/>
      <use x="147.363281" xlink:href="#DejaVuSans-101"/>
      <use x="208.886719" xlink:href="#DejaVuSans-116"/>
      <use x="248.095703" xlink:href="#DejaVuSans-104"/>
      <use x="311.474609" xlink:href="#DejaVuSans-108"/>
      <use x="339.257812" xlink:href="#DejaVuSans-117"/>
      <use x="402.636719" xlink:href="#DejaVuSans-107"/>
     </g>
    </g>
   </g>
   <g id="text_6">
    <g clip-path="url(#pfbaa943ff0)">
     <!-- Bethel -->
     <defs>
      <path d="M 19.671875 34.8125 
L 19.671875 8.109375 
L 35.5 8.109375 
Q 43.453125 8.109375 47.28125 11.40625 
Q 51.125 14.703125 51.125 21.484375 
Q 51.125 28.328125 47.28125 31.5625 
Q 43.453125 34.8125 35.5 34.8125 
z
M 19.671875 64.796875 
L 19.671875 42.828125 
L 34.28125 42.828125 
Q 41.5 42.828125 45.03125 45.53125 
Q 48.578125 48.25 48.578125 53.8125 
Q 48.578125 59.328125 45.03125 62.0625 
Q 41.5 64.796875 34.28125 64.796875 
z
M 9.8125 72.90625 
L 35.015625 72.90625 
Q 46.296875 72.90625 52.390625 68.21875 
Q 58.5 63.53125 58.5 54.890625 
Q 58.5 48.1875 55.375 44.234375 
Q 52.25 40.28125 46.1875 39.3125 
Q 53.46875 37.75 57.5 32.78125 
Q 61.53125 27.828125 61.53125 20.40625 
Q 61.53125 10.640625 54.890625 5.3125 
Q 48.25 0 35.984375 0 
L 9.8125 0 
z
" id="DejaVuSans-66"/>
     </defs>
     <g transform="translate(134.999873 113.056433)scale(0.12 -0.12)">
      <use xlink:href="#DejaVuSans-66"/>
      <use x="68.603516" xlink:href="#DejaVuSans-101"/>
      <use x="130.126953" xlink:href="#DejaVuSans-116"/>
      <use x="169.335938" xlink:href="#DejaVuSans-104"/>
      <use x="232.714844" xlink:href="#DejaVuSans-101"/>
      <use x="294.238281" xlink:href="#DejaVuSans-108"/>
     </g>
    </g>
   </g>
   <g id="text_7">
    <g clip-path="url(#pfbaa943ff0)">
     <!-- Napaskiak -->
     <defs>
      <path d="M 9.8125 72.90625 
L 23.09375 72.90625 
L 55.421875 11.921875 
L 55.421875 72.90625 
L 64.984375 72.90625 
L 64.984375 0 
L 51.703125 0 
L 19.390625 60.984375 
L 19.390625 0 
L 9.8125 0 
z
" id="DejaVuSans-78"/>
      <path d="M 18.109375 8.203125 
L 18.109375 -20.796875 
L 9.078125 -20.796875 
L 9.078125 54.6875 
L 18.109375 54.6875 
L 18.109375 46.390625 
Q 20.953125 51.265625 25.265625 53.625 
Q 29.59375 56 35.59375 56 
Q 45.5625 56 51.78125 48.09375 
Q 58.015625 40.1875 58.015625 27.296875 
Q 58.015625 14.40625 51.78125 6.484375 
Q 45.5625 -1.421875 35.59375 -1.421875 
Q 29.59375 -1.421875 25.265625 0.953125 
Q 20.953125 3.328125 18.109375 8.203125 
z
M 48.6875 27.296875 
Q 48.6875 37.203125 44.609375 42.84375 
Q 40.53125 48.484375 33.40625 48.484375 
Q 26.265625 48.484375 22.1875 42.84375 
Q 18.109375 37.203125 18.109375 27.296875 
Q 18.109375 17.390625 22.1875 11.75 
Q 26.265625 6.109375 33.40625 6.109375 
Q 40.53125 6.109375 44.609375 11.75 
Q 48.6875 17.390625 48.6875 27.296875 
z
" id="DejaVuSans-112"/>
     </defs>
     <g transform="translate(124.829055 116.696779)scale(0.12 -0.12)">
      <use xlink:href="#DejaVuSans-78"/>
      <use x="74.804688" xlink:href="#DejaVuSans-97"/>
      <use x="136.083984" xlink:href="#DejaVuSans-112"/>
      <use x="199.560547" xlink:href="#DejaVuSans-97"/>
      <use x="260.839844" xlink:href="#DejaVuSans-115"/>
      <use x="312.939453" xlink:href="#DejaVuSans-107"/>
      <use x="370.849609" xlink:href="#DejaVuSans-105"/>
      <use x="398.632812" xlink:href="#DejaVuSans-97"/>
      <use x="459.912109" xlink:href="#DejaVuSans-107"/>
     </g>
    </g>
   </g>
   <g id="text_8">
    <g clip-path="url(#pfbaa943ff0)">
     <!-- Napakiak -->
     <g transform="translate(122.698029 117.151822)scale(0.12 -0.12)">
      <use xlink:href="#DejaVuSans-78"/>
      <use x="74.804688" xlink:href="#DejaVuSans-97"/>
      <use x="136.083984" xlink:href="#DejaVuSans-112"/>
      <use x="199.560547" xlink:href="#DejaVuSans-97"/>
      <use x="260.839844" xlink:href="#DejaVuSans-107"/>
      <use x="318.75" xlink:href="#DejaVuSans-105"/>
      <use x="346.533203" xlink:href="#DejaVuSans-97"/>
      <use x="407.8125" xlink:href="#DejaVuSans-107"/>
     </g>
    </g>
   </g>
   <g id="text_9">
    <g clip-path="url(#pfbaa943ff0)">
     <!-- Tuntutuliak -->
     <g transform="translate(98.193812 132.62329)scale(0.12 -0.12)">
      <use xlink:href="#DejaVuSans-84"/>
      <use x="60.849609" xlink:href="#DejaVuSans-117"/>
      <use x="124.228516" xlink:href="#DejaVuSans-110"/>
      <use x="187.607422" xlink:href="#DejaVuSans-116"/>
      <use x="226.816406" xlink:href="#DejaVuSans-117"/>
      <use x="290.195312" xlink:href="#DejaVuSans-116"/>
      <use x="329.404297" xlink:href="#DejaVuSans-117"/>
      <use x="392.783203" xlink:href="#DejaVuSans-108"/>
      <use x="420.566406" xlink:href="#DejaVuSans-105"/>
      <use x="448.349609" xlink:href="#DejaVuSans-97"/>
      <use x="509.628906" xlink:href="#DejaVuSans-107"/>
     </g>
    </g>
   </g>
   <g id="text_10">
    <g clip-path="url(#pfbaa943ff0)">
     <!-- Eek -->
     <defs>
      <path d="M 9.8125 72.90625 
L 55.90625 72.90625 
L 55.90625 64.59375 
L 19.671875 64.59375 
L 19.671875 43.015625 
L 54.390625 43.015625 
L 54.390625 34.71875 
L 19.671875 34.71875 
L 19.671875 8.296875 
L 56.78125 8.296875 
L 56.78125 0 
L 9.8125 0 
z
" id="DejaVuSans-69"/>
     </defs>
     <g transform="translate(138.633261 137.628765)scale(0.12 -0.12)">
      <use xlink:href="#DejaVuSans-69"/>
      <use x="63.183594" xlink:href="#DejaVuSans-101"/>
      <use x="124.707031" xlink:href="#DejaVuSans-107"/>
     </g>
    </g>
   </g>
   <g id="text_11">
    <g clip-path="url(#pfbaa943ff0)">
     <!-- Kongiganak -->
     <g transform="translate(91.142121 149.004844)scale(0.12 -0.12)">
      <use xlink:href="#DejaVuSans-75"/>
      <use x="65.498047" xlink:href="#DejaVuSans-111"/>
      <use x="126.679688" xlink:href="#DejaVuSans-110"/>
      <use x="190.058594" xlink:href="#DejaVuSans-103"/>
      <use x="253.535156" xlink:href="#DejaVuSans-105"/>
      <use x="281.318359" xlink:href="#DejaVuSans-103"/>
      <use x="344.794922" xlink:href="#DejaVuSans-97"/>
      <use x="406.074219" xlink:href="#DejaVuSans-110"/>
      <use x="469.453125" xlink:href="#DejaVuSans-97"/>
      <use x="530.732422" xlink:href="#DejaVuSans-107"/>
     </g>
    </g>
   </g>
   <g id="text_12">
    <g clip-path="url(#pfbaa943ff0)">
     <!-- Kwigillingok -->
     <g transform="translate(83.359997 154.010319)scale(0.12 -0.12)">
      <use xlink:href="#DejaVuSans-75"/>
      <use x="65.576172" xlink:href="#DejaVuSans-119"/>
      <use x="147.363281" xlink:href="#DejaVuSans-105"/>
      <use x="175.146484" xlink:href="#DejaVuSans-103"/>
      <use x="238.623047" xlink:href="#DejaVuSans-105"/>
      <use x="266.40625" xlink:href="#DejaVuSans-108"/>
      <use x="294.189453" xlink:href="#DejaVuSans-108"/>
      <use x="321.972656" xlink:href="#DejaVuSans-105"/>
      <use x="349.755859" xlink:href="#DejaVuSans-110"/>
      <use x="413.134766" xlink:href="#DejaVuSans-103"/>
      <use x="476.611328" xlink:href="#DejaVuSans-111"/>
      <use x="537.792969" xlink:href="#DejaVuSans-107"/>
     </g>
    </g>
   </g>
   <g id="text_13">
    <g clip-path="url(#pfbaa943ff0)">
     <!-- Quinhagak -->
     <defs>
      <path d="M 39.40625 66.21875 
Q 28.65625 66.21875 22.328125 58.203125 
Q 16.015625 50.203125 16.015625 36.375 
Q 16.015625 22.609375 22.328125 14.59375 
Q 28.65625 6.59375 39.40625 6.59375 
Q 50.140625 6.59375 56.421875 14.59375 
Q 62.703125 22.609375 62.703125 36.375 
Q 62.703125 50.203125 56.421875 58.203125 
Q 50.140625 66.21875 39.40625 66.21875 
z
M 53.21875 1.3125 
L 66.21875 -12.890625 
L 54.296875 -12.890625 
L 43.5 -1.21875 
Q 41.890625 -1.3125 41.03125 -1.359375 
Q 40.1875 -1.421875 39.40625 -1.421875 
Q 24.03125 -1.421875 14.8125 8.859375 
Q 5.609375 19.140625 5.609375 36.375 
Q 5.609375 53.65625 14.8125 63.9375 
Q 24.03125 74.21875 39.40625 74.21875 
Q 54.734375 74.21875 63.90625 63.9375 
Q 73.09375 53.65625 73.09375 36.375 
Q 73.09375 23.6875 67.984375 14.640625 
Q 62.890625 5.609375 53.21875 1.3125 
z
" id="DejaVuSans-81"/>
     </defs>
     <g transform="translate(120.83573 157.650664)scale(0.12 -0.12)">
      <use xlink:href="#DejaVuSans-81"/>
      <use x="78.710938" xlink:href="#DejaVuSans-117"/>
      <use x="142.089844" xlink:href="#DejaVuSans-105"/>
      <use x="169.873047" xlink:href="#DejaVuSans-110"/>
      <use x="233.251953" xlink:href="#DejaVuSans-104"/>
      <use x="296.630859" xlink:href="#DejaVuSans-97"/>
      <use x="357.910156" xlink:href="#DejaVuSans-103"/>
      <use x="421.386719" xlink:href="#DejaVuSans-97"/>
      <use x="482.666016" xlink:href="#DejaVuSans-107"/>
     </g>
    </g>
   </g>
  </g>
 </g>
 <defs>
  <clipPath id="pfbaa943ff0">
   <rect height="188.496" width="446.4" x="72" y="29.376"/>
  </clipPath>
 </defs>
</svg>
