<?xml version="1.0" encoding="utf-8" standalone="no"?>
<!DOCTYPE svg PUBLIC "-//W3C//DTD SVG 1.1//EN"
  "http://www.w3.org/Graphics/SVG/1.1/DTD/svg11.dtd">
<!-- Created with matplotlib (https://matplotlib.org/) -->
<svg height="345.6pt" version="1.1" viewBox="0 0 460.8 345.6" width="460.8pt" xmlns="http://www.w3.org/2000/svg" xmlns:xlink="http://www.w3.org/1999/xlink">
 <defs>
  <style type="text/css">
*{stroke-linecap:butt;stroke-linejoin:round;}
  </style>
 </defs>
 <g id="figure_1">
  <g id="patch_1">
   <path d="M 0 345.6 
L 460.8 345.6 
L 460.8 0 
L 0 0 
z
" style="fill:#ffffff;"/>
  </g>
  <g id="axes_1">
   <g id="patch_2">
    <path d="M 57.6 307.584 
L 414.72 307.584 
L 414.72 41.472 
L 57.6 41.472 
z
" style="fill:#ffffff;"/>
   </g>
   <g id="patch_3">
    <path clip-path="url(#p13d361c316)" d="M 292.822574 76.671299 
Q 279.752794 172.050823 266.834799 266.322665 
" style="fill:none;"/>
    <path clip-path="url(#p13d361c316)" d="M 269.359324 262.631219 
L 266.834799 266.322665 
L 265.396358 262.088177 
L 269.359324 262.631219 
z
" style="fill:none;"/>
   </g>
   <g id="patch_4">
    <path clip-path="url(#p13d361c316)" d="M 292.822574 76.671299 
Q 322.766585 166.010814 352.355289 254.290255 
" style="fill:none;"/>
    <path clip-path="url(#p13d361c316)" d="M 352.980426 249.862027 
L 352.355289 254.290255 
L 349.187789 251.133209 
L 352.980426 249.862027 
z
" style="fill:none;"/>
   </g>
   <g id="patch_5">
    <path clip-path="url(#p13d361c316)" d="M 292.822574 76.671299 
Q 253.659082 116.557358 215.2789 155.645655 
" style="fill:none;"/>
    <path clip-path="url(#p13d361c316)" d="M 219.508437 154.192722 
L 215.2789 155.645655 
L 216.654275 151.390266 
L 219.508437 154.192722 
z
" style="fill:none;"/>
   </g>
   <g id="patch_6">
    <path clip-path="url(#p13d361c316)" d="M 292.822574 76.671299 
Q 325.229471 97.112705 356.690738 116.957633 
" style="fill:none;"/>
    <path clip-path="url(#p13d361c316)" d="M 354.374564 113.132017 
L 356.690738 116.957633 
L 352.24054 116.515203 
L 354.374564 113.132017 
z
" style="fill:none;"/>
   </g>
   <g id="patch_7">
    <path clip-path="url(#p13d361c316)" d="M 292.822574 76.671299 
Q 309.849153 98.44064 326.186937 119.329322 
" style="fill:none;"/>
    <path clip-path="url(#p13d361c316)" d="M 325.298 114.946425 
L 326.186937 119.329322 
L 322.147256 117.410733 
L 325.298 114.946425 
z
" style="fill:none;"/>
   </g>
   <g id="patch_8">
    <path clip-path="url(#p13d361c316)" d="M 292.822574 76.671299 
Q 192.867349 134.677628 93.879122 192.122786 
" style="fill:none;"/>
    <path clip-path="url(#p13d361c316)" d="M 98.342616 191.844897 
L 93.879122 192.122786 
L 96.334907 188.385257 
L 98.342616 191.844897 
z
" style="fill:none;"/>
   </g>
   <g id="patch_9">
    <path clip-path="url(#p13d361c316)" d="M 292.822574 76.671299 
Q 302.305152 124.258799 311.569239 170.749823 
" style="fill:none;"/>
    <path clip-path="url(#p13d361c316)" d="M 312.748981 166.436099 
L 311.569239 170.749823 
L 308.826105 167.217796 
L 312.748981 166.436099 
z
" style="fill:none;"/>
   </g>
   <g id="patch_10">
    <path clip-path="url(#p13d361c316)" d="M 292.822574 76.671299 
Q 336.313607 110.986331 378.926917 144.608829 
" style="fill:none;"/>
    <path clip-path="url(#p13d361c316)" d="M 377.025528 140.561024 
L 378.926917 144.608829 
L 374.54784 143.701257 
L 377.025528 140.561024 
z
" style="fill:none;"/>
   </g>
   <g id="patch_11">
    <path clip-path="url(#p13d361c316)" d="M 292.822574 76.671299 
Q 334.537183 153.37431 375.717636 229.095142 
" style="fill:none;"/>
    <path clip-path="url(#p13d361c316)" d="M 375.563564 224.62566 
L 375.717636 229.095142 
L 372.049608 226.536711 
L 375.563564 224.62566 
z
" style="fill:none;"/>
   </g>
   <g id="patch_12">
    <path clip-path="url(#p13d361c316)" d="M 361.862895 120.220092 
Q 315.26675 194.186033 269.266537 267.206 
" style="fill:none;"/>
    <path clip-path="url(#p13d361c316)" d="M 273.090817 264.887621 
L 269.266537 267.206 
L 269.706401 262.755549 
L 273.090817 264.887621 
z
" style="fill:none;"/>
   </g>
   <g id="patch_13">
    <path clip-path="url(#p13d361c316)" d="M 361.862895 120.220092 
Q 358.215732 187.659424 354.628945 253.982354 
" style="fill:none;"/>
    <path clip-path="url(#p13d361c316)" d="M 356.842034 250.096194 
L 354.628945 253.982354 
L 352.84787 249.880187 
L 356.842034 250.096194 
z
" style="fill:none;"/>
   </g>
   <g id="patch_14">
    <path clip-path="url(#p13d361c316)" d="M 361.862895 120.220092 
Q 288.846921 139.477776 216.912012 158.450332 
" style="fill:none;"/>
    <path clip-path="url(#p13d361c316)" d="M 221.2898 159.3641 
L 216.912012 158.450332 
L 220.269699 155.496363 
L 221.2898 159.3641 
z
" style="fill:none;"/>
   </g>
   <g id="patch_15">
    <path clip-path="url(#p13d361c316)" d="M 361.862895 120.220092 
Q 348.392358 121.878387 336.031479 123.400076 
" style="fill:none;"/>
    <path clip-path="url(#p13d361c316)" d="M 340.245875 124.89636 
L 336.031479 123.400076 
L 339.757143 120.92633 
L 340.245875 124.89636 
z
" style="fill:none;"/>
   </g>
   <g id="patch_16">
    <path clip-path="url(#p13d361c316)" d="M 361.862895 120.220092 
Q 227.638563 157.044415 94.492424 193.572937 
" style="fill:none;"/>
    <path clip-path="url(#p13d361c316)" d="M 98.879033 194.443377 
L 94.492424 193.572937 
L 97.820741 190.585914 
L 98.879033 194.443377 
z
" style="fill:none;"/>
   </g>
   <g id="patch_17">
    <path clip-path="url(#p13d361c316)" d="M 361.862895 120.220092 
Q 338.954406 146.59513 316.779067 172.126076 
" style="fill:none;"/>
    <path clip-path="url(#p13d361c316)" d="M 320.912022 170.417661 
L 316.779067 172.126076 
L 317.892108 167.794663 
L 320.912022 170.417661 
z
" style="fill:none;"/>
   </g>
   <g id="patch_18">
    <path clip-path="url(#p13d361c316)" d="M 361.862895 120.220092 
Q 371.263027 132.333258 379.977718 143.563151 
" style="fill:none;"/>
    <path clip-path="url(#p13d361c316)" d="M 379.10545 139.176906 
L 379.977718 143.563151 
L 375.945361 141.629217 
L 379.10545 139.176906 
z
" style="fill:none;"/>
   </g>
   <g id="patch_19">
    <path clip-path="url(#p13d361c316)" d="M 361.862895 120.220092 
Q 369.88896 174.872063 377.752576 228.417865 
" style="fill:none;"/>
    <path clip-path="url(#p13d361c316)" d="M 379.150154 224.169716 
L 377.752576 228.417865 
L 375.192603 224.750913 
L 379.150154 224.169716 
z
" style="fill:none;"/>
   </g>
   <g id="patch_20">
    <path clip-path="url(#p13d361c316)" d="M 329.955815 124.148023 
Q 211.672228 158.963918 94.461179 193.464119 
" style="fill:none;"/>
    <path clip-path="url(#p13d361c316)" d="M 98.863137 194.253273 
L 94.461179 193.464119 
L 97.733677 190.416045 
L 98.863137 194.253273 
z
" style="fill:none;"/>
   </g>
   <g id="patch_21">
    <path clip-path="url(#p13d361c316)" d="M 329.955815 124.148023 
Q 322.137145 148.070736 314.665803 170.930734 
" style="fill:none;"/>
    <path clip-path="url(#p13d361c316)" d="M 317.809483 167.749967 
L 314.665803 170.930734 
L 314.007397 166.50733 
L 317.809483 167.749967 
z
" style="fill:none;"/>
   </g>
   <g id="patch_22">
    <path clip-path="url(#p13d361c316)" d="M 329.955815 124.148023 
Q 354.563591 135.245412 378.152179 145.883178 
" style="fill:none;"/>
    <path clip-path="url(#p13d361c316)" d="M 375.32802 142.415595 
L 378.152179 145.883178 
L 373.683618 146.061956 
L 375.32802 142.415595 
z
" style="fill:none;"/>
   </g>
   <g id="patch_23">
    <path clip-path="url(#p13d361c316)" d="M 329.955815 124.148023 
Q 298.970431 195.970521 268.427929 266.766445 
" style="fill:none;"/>
    <path clip-path="url(#p13d361c316)" d="M 271.848822 263.885908 
L 268.427929 266.766445 
L 268.176035 262.301408 
L 271.848822 263.885908 
z
" style="fill:none;"/>
   </g>
   <g id="patch_24">
    <path clip-path="url(#p13d361c316)" d="M 329.955815 124.148023 
Q 341.686363 189.656117 353.219839 254.063683 
" style="fill:none;"/>
    <path clip-path="url(#p13d361c316)" d="M 354.483458 249.77378 
L 353.219839 254.063683 
L 350.546088 250.478846 
L 354.483458 249.77378 
z
" style="fill:none;"/>
   </g>
   <g id="patch_25">
    <path clip-path="url(#p13d361c316)" d="M 329.955815 124.148023 
Q 272.868173 141.358074 216.85098 158.245419 
" style="fill:none;"/>
    <path clip-path="url(#p13d361c316)" d="M 221.258008 159.005751 
L 216.85098 158.245419 
L 220.103463 155.175996 
L 221.258008 159.005751 
z
" style="fill:none;"/>
   </g>
   <g id="patch_26">
    <path clip-path="url(#p13d361c316)" d="M 329.955815 124.148023 
Q 353.289134 177.022081 376.171064 228.873277 
" style="fill:none;"/>
    <path clip-path="url(#p13d361c316)" d="M 376.385877 224.406303 
L 376.171064 228.873277 
L 372.726373 226.021242 
L 376.385877 224.406303 
z
" style="fill:none;"/>
   </g>
   <g id="patch_27">
    <path clip-path="url(#p13d361c316)" d="M 383.730248 148.398724 
Q 326.588995 208.57835 270.217578 267.947204 
" style="fill:none;"/>
    <path clip-path="url(#p13d361c316)" d="M 274.422184 266.423625 
L 270.217578 267.947204 
L 271.521479 263.669372 
L 274.422184 266.423625 
z
" style="fill:none;"/>
   </g>
   <g id="patch_28">
    <path clip-path="url(#p13d361c316)" d="M 383.730248 148.398724 
Q 369.65174 201.825314 355.858122 254.170777 
" style="fill:none;"/>
    <path clip-path="url(#p13d361c316)" d="M 358.811354 250.812441 
L 355.858122 254.170777 
L 354.943393 249.793189 
L 358.811354 250.812441 
z
" style="fill:none;"/>
   </g>
   <g id="patch_29">
    <path clip-path="url(#p13d361c316)" d="M 383.730248 148.398724 
Q 299.855845 154.037509 217.096958 159.6013 
" style="fill:none;"/>
    <path clip-path="url(#p13d361c316)" d="M 221.222104 161.328485 
L 217.096958 159.6013 
L 220.953794 157.337494 
L 221.222104 161.328485 
z
" style="fill:none;"/>
   </g>
   <g id="patch_30">
    <path clip-path="url(#p13d361c316)" d="M 383.730248 148.398724 
Q 238.630162 171.40389 94.634318 194.233982 
" style="fill:none;"/>
    <path clip-path="url(#p13d361c316)" d="M 98.898154 195.582946 
L 94.634318 194.233982 
L 98.27179 191.632291 
L 98.898154 195.582946 
z
" style="fill:none;"/>
   </g>
   <g id="patch_31">
    <path clip-path="url(#p13d361c316)" d="M 383.730248 148.398724 
Q 350.566841 161.646848 318.441689 174.48021 
" style="fill:none;"/>
    <path clip-path="url(#p13d361c316)" d="M 322.898211 174.853598 
L 318.441689 174.48021 
L 321.414313 171.139026 
L 322.898211 174.853598 
z
" style="fill:none;"/>
   </g>
   <g id="patch_32">
    <path clip-path="url(#p13d361c316)" d="M 383.730248 148.398724 
Q 381.333539 188.938465 379.002813 228.362122 
" style="fill:none;"/>
    <path clip-path="url(#p13d361c316)" d="M 381.235395 224.487128 
L 379.002813 228.362122 
L 377.242367 224.25106 
L 381.235395 224.487128 
z
" style="fill:none;"/>
   </g>
   <g id="patch_33">
    <path clip-path="url(#p13d361c316)" d="M 210.991915 160.011735 
Q 280.595296 208.618543 349.282033 256.585221 
" style="fill:none;"/>
    <path clip-path="url(#p13d361c316)" d="M 347.147646 252.655286 
L 349.282033 256.585221 
L 344.857452 255.93477 
L 347.147646 252.655286 
z
" style="fill:none;"/>
   </g>
   <g id="patch_34">
    <path clip-path="url(#p13d361c316)" d="M 210.991915 160.011735 
Q 237.399218 213.953708 263.314934 266.891519 
" style="fill:none;"/>
    <path clip-path="url(#p13d361c316)" d="M 263.352476 262.419541 
L 263.314934 266.891519 
L 259.759877 264.178299 
L 263.352476 262.419541 
z
" style="fill:none;"/>
   </g>
   <g id="patch_35">
    <path clip-path="url(#p13d361c316)" d="M 210.991915 160.011735 
Q 152.194575 176.911154 94.471766 193.501732 
" style="fill:none;"/>
    <path clip-path="url(#p13d361c316)" d="M 98.868596 194.318974 
L 94.471766 193.501732 
L 97.763657 190.474613 
L 98.868596 194.318974 
z
" style="fill:none;"/>
   </g>
   <g id="patch_36">
    <path clip-path="url(#p13d361c316)" d="M 210.991915 160.011735 
Q 259.410607 167.974141 306.726083 175.755123 
" style="fill:none;"/>
    <path clip-path="url(#p13d361c316)" d="M 303.103636 173.132552 
L 306.726083 175.755123 
L 302.454559 177.079538 
L 303.103636 173.132552 
z
" style="fill:none;"/>
   </g>
   <g id="patch_37">
    <path clip-path="url(#p13d361c316)" d="M 210.991915 160.011735 
Q 292.531076 196.226519 373.04845 231.987485 
" style="fill:none;"/>
    <path clip-path="url(#p13d361c316)" d="M 370.204602 228.536032 
L 373.04845 231.987485 
L 368.580979 232.191691 
L 370.204602 228.536032 
z
" style="fill:none;"/>
   </g>
   <g id="patch_38">
    <path clip-path="url(#p13d361c316)" d="M 312.7645 176.748135 
Q 290.482398 222.320558 268.691388 266.888577 
" style="fill:none;"/>
    <path clip-path="url(#p13d361c316)" d="M 272.245106 264.173601 
L 268.691388 266.888577 
L 268.651638 262.416618 
L 272.245106 264.173601 
z
" style="fill:none;"/>
   </g>
   <g id="patch_39">
    <path clip-path="url(#p13d361c316)" d="M 312.7645 176.748135 
Q 332.416821 216.181478 351.570449 254.614169 
" style="fill:none;"/>
    <path clip-path="url(#p13d361c316)" d="M 351.576291 250.142037 
L 351.570449 254.614169 
L 347.996249 251.926216 
L 351.576291 250.142037 
z
" style="fill:none;"/>
   </g>
   <g id="patch_40">
    <path clip-path="url(#p13d361c316)" d="M 312.7645 176.748135 
Q 203.169059 185.765206 94.687886 194.6906 
" style="fill:none;"/>
    <path clip-path="url(#p13d361c316)" d="M 98.838414 196.355869 
L 94.687886 194.6906 
L 98.510418 192.369339 
L 98.838414 196.355869 
z
" style="fill:none;"/>
   </g>
   <g id="patch_41">
    <path clip-path="url(#p13d361c316)" d="M 312.7645 176.748135 
Q 343.82232 203.961925 374.039248 230.438899 
" style="fill:none;"/>
    <path clip-path="url(#p13d361c316)" d="M 372.348832 226.298549 
L 374.039248 230.438899 
L 369.712719 229.307022 
L 372.348832 226.298549 
z
" style="fill:none;"/>
   </g>
   <g id="patch_42">
    <path clip-path="url(#p13d361c316)" d="M 88.589752 195.19233 
Q 175.005353 232.791455 260.395757 269.944521 
" style="fill:none;"/>
    <path clip-path="url(#p13d361c316)" d="M 257.525834 266.514719 
L 260.395757 269.944521 
L 255.929961 270.182578 
L 257.525834 266.514719 
z
" style="fill:none;"/>
   </g>
   <g id="patch_43">
    <path clip-path="url(#p13d361c316)" d="M 88.589752 195.19233 
Q 219.013623 227.046803 348.351386 258.636007 
" style="fill:none;"/>
    <path clip-path="url(#p13d361c316)" d="M 344.940133 255.744061 
L 348.351386 258.636007 
L 343.991077 259.629842 
L 344.940133 255.744061 
z
" style="fill:none;"/>
   </g>
   <g id="patch_44">
    <path clip-path="url(#p13d361c316)" d="M 88.589752 195.19233 
Q 231.139428 214.496643 372.581182 233.650919 
" style="fill:none;"/>
    <path clip-path="url(#p13d361c316)" d="M 368.885757 231.132223 
L 372.581182 233.650919 
L 368.34897 235.096042 
L 368.885757 231.132223 
z
" style="fill:none;"/>
   </g>
   <g id="patch_45">
    <path clip-path="url(#p13d361c316)" d="M 378.641619 234.471634 
Q 368.192178 245.467967 358.512897 255.653834 
" style="fill:none;"/>
    <path clip-path="url(#p13d361c316)" d="M 362.718106 254.131922 
L 358.512897 255.653834 
L 359.818493 251.376519 
L 362.718106 254.131922 
z
" style="fill:none;"/>
   </g>
   <g id="patch_46">
    <path clip-path="url(#p13d361c316)" d="M 378.641619 234.471634 
Q 324.692974 252.630406 271.803949 270.432517 
" style="fill:none;"/>
    <path clip-path="url(#p13d361c316)" d="M 276.232973 271.051991 
L 271.803949 270.432517 
L 274.956943 267.260983 
L 276.232973 271.051991 
z
" style="fill:none;"/>
   </g>
   <g id="patch_47">
    <path clip-path="url(#p13d361c316)" d="M 354.298717 260.088571 
Q 312.626352 265.891971 272.061335 271.541159 
" style="fill:none;"/>
    <path clip-path="url(#p13d361c316)" d="M 276.298965 272.970316 
L 272.061335 271.541159 
L 275.747239 269.008549 
L 276.298965 272.970316 
z
" style="fill:none;"/>
   </g>
   <g id="patch_48">
    <path clip-path="url(#p13d361c316)" d="M 292.822574 76.671299 
Q 280.001189 170.238109 267.356178 262.517792 
" style="fill:none;stroke:#000000;stroke-linecap:round;stroke-opacity:0.5;stroke-width:1.162;"/>
    <path clip-path="url(#p13d361c316)" d="M 269.880703 258.826346 
L 267.356178 262.517792 
L 265.917736 258.283304 
L 269.880703 258.826346 
z
" style="fill-opacity:0.5;stroke:#000000;stroke-linecap:round;stroke-opacity:0.5;stroke-width:1.162;"/>
   </g>
   <g id="patch_49">
    <path clip-path="url(#p13d361c316)" d="M 292.822574 76.671299 
Q 322.184993 164.275604 351.134191 250.647043 
" style="fill:none;stroke:#000000;stroke-linecap:round;stroke-opacity:0.5;stroke-width:1.163;"/>
    <path clip-path="url(#p13d361c316)" d="M 351.759327 246.218815 
L 351.134191 250.647043 
L 347.96669 247.489997 
L 351.759327 246.218815 
z
" style="fill-opacity:0.5;stroke:#000000;stroke-linecap:round;stroke-opacity:0.5;stroke-width:1.163;"/>
   </g>
   <g id="patch_50">
    <path clip-path="url(#p13d361c316)" d="M 292.822574 76.671299 
Q 254.940183 115.252621 217.660941 153.219665 
" style="fill:none;stroke:#000000;stroke-linecap:round;stroke-opacity:0.5;stroke-width:0.77;"/>
    <path clip-path="url(#p13d361c316)" d="M 221.890478 151.766732 
L 217.660941 153.219665 
L 219.036317 148.964276 
L 221.890478 151.766732 
z
" style="fill-opacity:0.5;stroke:#000000;stroke-linecap:round;stroke-opacity:0.5;stroke-width:0.77;"/>
   </g>
   <g id="patch_51">
    <path clip-path="url(#p13d361c316)" d="M 292.822574 76.671299 
Q 323.67876 96.134558 354.002557 115.262001 
" style="fill:none;stroke:#000000;stroke-linecap:round;stroke-opacity:0.5;stroke-width:0.563;"/>
    <path clip-path="url(#p13d361c316)" d="M 351.686383 111.436385 
L 354.002557 115.262001 
L 349.55236 114.81957 
L 351.686383 111.436385 
z
" style="fill-opacity:0.5;stroke:#000000;stroke-linecap:round;stroke-opacity:0.5;stroke-width:0.563;"/>
   </g>
   <g id="patch_52">
    <path clip-path="url(#p13d361c316)" d="M 292.822574 76.671299 
Q 308.720469 96.997561 324.351112 116.982127 
" style="fill:none;stroke:#000000;stroke-linecap:round;stroke-opacity:0.5;stroke-width:0.388;"/>
    <path clip-path="url(#p13d361c316)" d="M 323.462175 112.59923 
L 324.351112 116.982127 
L 320.311432 115.063539 
L 323.462175 112.59923 
z
" style="fill-opacity:0.5;stroke:#000000;stroke-linecap:round;stroke-opacity:0.5;stroke-width:0.388;"/>
   </g>
   <g id="patch_53">
    <path clip-path="url(#p13d361c316)" d="M 292.822574 76.671299 
Q 194.450452 133.758916 97.663241 189.926774 
" style="fill:none;stroke:#000000;stroke-linecap:round;stroke-opacity:0.5;stroke-width:1.639;"/>
    <path clip-path="url(#p13d361c316)" d="M 102.126735 189.648885 
L 97.663241 189.926774 
L 100.119026 186.189245 
L 102.126735 189.648885 
z
" style="fill-opacity:0.5;stroke:#000000;stroke-linecap:round;stroke-opacity:0.5;stroke-width:1.639;"/>
   </g>
   <g id="patch_54">
    <path clip-path="url(#p13d361c316)" d="M 292.822574 76.671299 
Q 301.947307 122.462987 310.940072 167.592403 
" style="fill:none;stroke:#000000;stroke-linecap:round;stroke-opacity:0.5;stroke-width:0.604;"/>
    <path clip-path="url(#p13d361c316)" d="M 312.119814 163.27868 
L 310.940072 167.592403 
L 308.196938 164.060376 
L 312.119814 163.27868 
z
" style="fill-opacity:0.5;stroke:#000000;stroke-linecap:round;stroke-opacity:0.5;stroke-width:0.604;"/>
   </g>
   <g id="patch_55">
    <path clip-path="url(#p13d361c316)" d="M 292.822574 76.671299 
Q 334.876528 109.852456 376.243226 142.491359 
" style="fill:none;stroke:#000000;stroke-linecap:round;stroke-opacity:0.5;stroke-width:0.783;"/>
    <path clip-path="url(#p13d361c316)" d="M 374.341837 138.443555 
L 376.243226 142.491359 
L 371.86415 141.583788 
L 374.341837 138.443555 
z
" style="fill-opacity:0.5;stroke:#000000;stroke-linecap:round;stroke-opacity:0.5;stroke-width:0.783;"/>
   </g>
   <g id="patch_56">
    <path clip-path="url(#p13d361c316)" d="M 292.822574 76.671299 
Q 333.66375 151.76828 373.909342 225.770129 
" style="fill:none;stroke:#000000;stroke-linecap:round;stroke-opacity:0.5;stroke-width:1.115;"/>
    <path clip-path="url(#p13d361c316)" d="M 373.75527 221.300648 
L 373.909342 225.770129 
L 370.241314 223.211698 
L 373.75527 221.300648 
z
" style="fill-opacity:0.5;stroke:#000000;stroke-linecap:round;stroke-opacity:0.5;stroke-width:1.115;"/>
   </g>
   <g id="patch_57">
    <path clip-path="url(#p13d361c316)" d="M 361.862895 120.220092 
Q 316.240901 192.639682 271.292905 263.989377 
" style="fill:none;stroke:#000000;stroke-linecap:round;stroke-opacity:0.5;stroke-width:1.131;"/>
    <path clip-path="url(#p13d361c316)" d="M 275.117185 261.670997 
L 271.292905 263.989377 
L 271.73277 259.538925 
L 275.117185 261.670997 
z
" style="fill-opacity:0.5;stroke:#000000;stroke-linecap:round;stroke-opacity:0.5;stroke-width:1.131;"/>
   </g>
   <g id="patch_58">
    <path clip-path="url(#p13d361c316)" d="M 361.862895 120.220092 
Q 358.314532 185.832529 354.815737 250.528399 
" style="fill:none;stroke:#000000;stroke-linecap:round;stroke-opacity:0.5;stroke-width:0.821;"/>
    <path clip-path="url(#p13d361c316)" d="M 357.028826 246.642239 
L 354.815737 250.528399 
L 353.034662 246.426232 
L 357.028826 246.642239 
z
" style="fill-opacity:0.5;stroke:#000000;stroke-linecap:round;stroke-opacity:0.5;stroke-width:0.821;"/>
   </g>
   <g id="patch_59">
    <path clip-path="url(#p13d361c316)" d="M 361.862895 120.220092 
Q 290.61494 139.011468 220.57886 157.483215 
" style="fill:none;stroke:#000000;stroke-linecap:round;stroke-opacity:0.5;stroke-width:1.121;"/>
    <path clip-path="url(#p13d361c316)" d="M 224.956648 158.396983 
L 220.57886 157.483215 
L 223.936547 154.529246 
L 224.956648 158.396983 
z
" style="fill-opacity:0.5;stroke:#000000;stroke-linecap:round;stroke-opacity:0.5;stroke-width:1.121;"/>
   </g>
   <g id="patch_60">
    <path clip-path="url(#p13d361c316)" d="M 361.862895 120.220092 
Q 350.207385 121.654947 338.810425 123.057973 
" style="fill:none;stroke:#000000;stroke-linecap:round;stroke-opacity:0.5;stroke-width:0.233;"/>
    <path clip-path="url(#p13d361c316)" d="M 343.024821 124.554257 
L 338.810425 123.057973 
L 342.53609 120.584227 
L 343.024821 124.554257 
z
" style="fill-opacity:0.5;stroke:#000000;stroke-linecap:round;stroke-opacity:0.5;stroke-width:0.233;"/>
   </g>
   <g id="patch_61">
    <path clip-path="url(#p13d361c316)" d="M 361.862895 120.220092 
Q 229.402396 156.560509 99.13602 192.298971 
" style="fill:none;stroke:#000000;stroke-linecap:round;stroke-opacity:0.5;stroke-width:2.035;"/>
    <path clip-path="url(#p13d361c316)" d="M 103.522629 193.169411 
L 99.13602 192.298971 
L 102.464337 189.311948 
L 103.522629 193.169411 
z
" style="fill-opacity:0.5;stroke:#000000;stroke-linecap:round;stroke-opacity:0.5;stroke-width:2.035;"/>
   </g>
   <g id="patch_62">
    <path clip-path="url(#p13d361c316)" d="M 361.862895 120.220092 
Q 340.153097 145.215051 318.800344 169.798937 
" style="fill:none;stroke:#000000;stroke-linecap:round;stroke-opacity:0.5;stroke-width:0.487;"/>
    <path clip-path="url(#p13d361c316)" d="M 322.933299 168.090522 
L 318.800344 169.798937 
L 319.913385 165.467524 
L 322.933299 168.090522 
z
" style="fill-opacity:0.5;stroke:#000000;stroke-linecap:round;stroke-opacity:0.5;stroke-width:0.487;"/>
   </g>
   <g id="patch_63">
    <path clip-path="url(#p13d361c316)" d="M 361.862895 120.220092 
Q 370.141898 130.888553 378.263935 141.354743 
" style="fill:none;stroke:#000000;stroke-linecap:round;stroke-opacity:0.5;stroke-width:0.229;"/>
    <path clip-path="url(#p13d361c316)" d="M 377.391668 136.968498 
L 378.263935 141.354743 
L 374.231579 139.42081 
L 377.391668 136.968498 
z
" style="fill-opacity:0.5;stroke:#000000;stroke-linecap:round;stroke-opacity:0.5;stroke-width:0.229;"/>
   </g>
   <g id="patch_64">
    <path clip-path="url(#p13d361c316)" d="M 361.862895 120.220092 
Q 369.623208 173.062476 377.273056 225.152665 
" style="fill:none;stroke:#000000;stroke-linecap:round;stroke-opacity:0.5;stroke-width:0.68;"/>
    <path clip-path="url(#p13d361c316)" d="M 378.670635 220.904516 
L 377.273056 225.152665 
L 374.713083 221.485713 
L 378.670635 220.904516 
z
" style="fill-opacity:0.5;stroke:#000000;stroke-linecap:round;stroke-opacity:0.5;stroke-width:0.68;"/>
   </g>
   <g id="patch_65">
    <path clip-path="url(#p13d361c316)" d="M 329.955815 124.148023 
Q 213.425314 158.44791 98.829671 192.178285 
" style="fill:none;stroke:#000000;stroke-linecap:round;stroke-opacity:0.5;stroke-width:1.804;"/>
    <path clip-path="url(#p13d361c316)" d="M 103.231629 192.96744 
L 98.829671 192.178285 
L 102.10217 189.130212 
L 103.231629 192.96744 
z
" style="fill-opacity:0.5;stroke:#000000;stroke-linecap:round;stroke-opacity:0.5;stroke-width:1.804;"/>
   </g>
   <g id="patch_66">
    <path clip-path="url(#p13d361c316)" d="M 329.955815 124.148023 
Q 322.705852 146.330669 315.571202 168.160493 
" style="fill:none;stroke:#000000;stroke-linecap:round;stroke-opacity:0.5;stroke-width:0.332;"/>
    <path clip-path="url(#p13d361c316)" d="M 318.714881 164.979727 
L 315.571202 168.160493 
L 314.912796 163.73709 
L 318.714881 164.979727 
z
" style="fill-opacity:0.5;stroke:#000000;stroke-linecap:round;stroke-opacity:0.5;stroke-width:0.332;"/>
   </g>
   <g id="patch_67">
    <path clip-path="url(#p13d361c316)" d="M 329.955815 124.148023 
Q 352.896269 134.493499 375.412741 144.647771 
" style="fill:none;stroke:#000000;stroke-linecap:round;stroke-opacity:0.5;stroke-width:0.416;"/>
    <path clip-path="url(#p13d361c316)" d="M 372.588581 141.180188 
L 375.412741 144.647771 
L 370.944179 144.826549 
L 372.588581 141.180188 
z
" style="fill-opacity:0.5;stroke:#000000;stroke-linecap:round;stroke-opacity:0.5;stroke-width:0.416;"/>
   </g>
   <g id="patch_68">
    <path clip-path="url(#p13d361c316)" d="M 329.955815 124.148023 
Q 299.694494 194.292182 269.869411 263.425165 
" style="fill:none;stroke:#000000;stroke-linecap:round;stroke-opacity:0.5;stroke-width:0.985;"/>
    <path clip-path="url(#p13d361c316)" d="M 273.290304 260.544628 
L 269.869411 263.425165 
L 269.617517 258.960129 
L 273.290304 260.544628 
z
" style="fill-opacity:0.5;stroke:#000000;stroke-linecap:round;stroke-opacity:0.5;stroke-width:0.985;"/>
   </g>
   <g id="patch_69">
    <path clip-path="url(#p13d361c316)" d="M 329.955815 124.148023 
Q 341.36395 187.855635 352.611472 250.666316 
" style="fill:none;stroke:#000000;stroke-linecap:round;stroke-opacity:0.5;stroke-width:0.815;"/>
    <path clip-path="url(#p13d361c316)" d="M 353.875091 246.376414 
L 352.611472 250.666316 
L 349.937721 247.081479 
L 353.875091 246.376414 
z
" style="fill-opacity:0.5;stroke:#000000;stroke-linecap:round;stroke-opacity:0.5;stroke-width:0.815;"/>
   </g>
   <g id="patch_70">
    <path clip-path="url(#p13d361c316)" d="M 329.955815 124.148023 
Q 274.618069 140.830537 220.233023 157.225844 
" style="fill:none;stroke:#000000;stroke-linecap:round;stroke-opacity:0.5;stroke-width:0.89;"/>
    <path clip-path="url(#p13d361c316)" d="M 224.640051 157.986176 
L 220.233023 157.225844 
L 223.485506 154.156421 
L 224.640051 157.986176 
z
" style="fill-opacity:0.5;stroke:#000000;stroke-linecap:round;stroke-opacity:0.5;stroke-width:0.89;"/>
   </g>
   <g id="patch_71">
    <path clip-path="url(#p13d361c316)" d="M 329.955815 124.148023 
Q 352.550705 175.348777 374.812921 225.795682 
" style="fill:none;stroke:#000000;stroke-linecap:round;stroke-opacity:0.5;stroke-width:0.737;"/>
    <path clip-path="url(#p13d361c316)" d="M 375.027734 221.328708 
L 374.812921 225.795682 
L 371.36823 222.943647 
L 375.027734 221.328708 
z
" style="fill-opacity:0.5;stroke:#000000;stroke-linecap:round;stroke-opacity:0.5;stroke-width:0.737;"/>
   </g>
   <g id="patch_72">
    <path clip-path="url(#p13d361c316)" d="M 383.730248 148.398724 
Q 327.848242 207.252145 272.829993 265.195879 
" style="fill:none;stroke:#000000;stroke-linecap:round;stroke-opacity:0.5;stroke-width:1.122;"/>
    <path clip-path="url(#p13d361c316)" d="M 277.034598 263.672301 
L 272.829993 265.195879 
L 274.133893 260.918048 
L 277.034598 263.672301 
z
" style="fill-opacity:0.5;stroke:#000000;stroke-linecap:round;stroke-opacity:0.5;stroke-width:1.122;"/>
   </g>
   <g id="patch_73">
    <path clip-path="url(#p13d361c316)" d="M 383.730248 148.398724 
Q 370.117895 200.056301 356.701547 250.970062 
" style="fill:none;stroke:#000000;stroke-linecap:round;stroke-opacity:0.5;stroke-width:0.688;"/>
    <path clip-path="url(#p13d361c316)" d="M 359.654779 247.611726 
L 356.701547 250.970062 
L 355.786817 246.592474 
L 359.654779 247.611726 
z
" style="fill-opacity:0.5;stroke:#000000;stroke-linecap:round;stroke-opacity:0.5;stroke-width:0.688;"/>
   </g>
   <g id="patch_74">
    <path clip-path="url(#p13d361c316)" d="M 383.730248 148.398724 
Q 301.682439 153.914709 221.037949 159.336351 
" style="fill:none;stroke:#000000;stroke-linecap:round;stroke-opacity:0.5;stroke-width:1.258;"/>
    <path clip-path="url(#p13d361c316)" d="M 225.163095 161.063537 
L 221.037949 159.336351 
L 224.894785 157.072546 
L 225.163095 161.063537 
z
" style="fill-opacity:0.5;stroke:#000000;stroke-linecap:round;stroke-opacity:0.5;stroke-width:1.258;"/>
   </g>
   <g id="patch_75">
    <path clip-path="url(#p13d361c316)" d="M 383.730248 148.398724 
Q 240.43606 171.117571 99.530347 193.457732 
" style="fill:none;stroke:#000000;stroke-linecap:round;stroke-opacity:0.5;stroke-width:2.163;"/>
    <path clip-path="url(#p13d361c316)" d="M 103.794183 194.806696 
L 99.530347 193.457732 
L 103.167819 190.856041 
L 103.794183 194.806696 
z
" style="fill-opacity:0.5;stroke:#000000;stroke-linecap:round;stroke-opacity:0.5;stroke-width:2.163;"/>
   </g>
   <g id="patch_76">
    <path clip-path="url(#p13d361c316)" d="M 383.730248 148.398724 
Q 352.269084 160.966836 321.370654 173.310147 
" style="fill:none;stroke:#000000;stroke-linecap:round;stroke-opacity:0.5;stroke-width:0.542;"/>
    <path clip-path="url(#p13d361c316)" d="M 325.827175 173.683535 
L 321.370654 173.310147 
L 324.343277 169.968962 
L 325.827175 173.683535 
z
" style="fill-opacity:0.5;stroke:#000000;stroke-linecap:round;stroke-opacity:0.5;stroke-width:0.542;"/>
   </g>
   <g id="patch_77">
    <path clip-path="url(#p13d361c316)" d="M 383.730248 148.398724 
Q 381.441467 187.112883 379.186008 225.26342 
" style="fill:none;stroke:#000000;stroke-linecap:round;stroke-opacity:0.5;stroke-width:0.505;"/>
    <path clip-path="url(#p13d361c316)" d="M 381.41859 221.388426 
L 379.186008 225.26342 
L 377.425562 221.152358 
L 381.41859 221.388426 
z
" style="fill-opacity:0.5;stroke:#000000;stroke-linecap:round;stroke-opacity:0.5;stroke-width:0.505;"/>
   </g>
   <g id="patch_78">
    <path clip-path="url(#p13d361c316)" d="M 210.991915 160.011735 
Q 279.095227 207.570986 346.103151 254.365282 
" style="fill:none;stroke:#000000;stroke-linecap:round;stroke-opacity:0.5;stroke-width:1.195;"/>
    <path clip-path="url(#p13d361c316)" d="M 343.968764 250.435346 
L 346.103151 254.365282 
L 341.67857 253.71483 
L 343.968764 250.435346 
z
" style="fill-opacity:0.5;stroke:#000000;stroke-linecap:round;stroke-opacity:0.5;stroke-width:1.195;"/>
   </g>
   <g id="patch_79">
    <path clip-path="url(#p13d361c316)" d="M 210.991915 160.011735 
Q 236.593376 212.30762 261.816314 263.8303 
" style="fill:none;stroke:#000000;stroke-linecap:round;stroke-opacity:0.5;stroke-width:0.77;"/>
    <path clip-path="url(#p13d361c316)" d="M 261.853856 259.358321 
L 261.816314 263.8303 
L 258.261256 261.117079 
L 261.853856 259.358321 
z
" style="fill-opacity:0.5;stroke:#000000;stroke-linecap:round;stroke-opacity:0.5;stroke-width:0.77;"/>
   </g>
   <g id="patch_80">
    <path clip-path="url(#p13d361c316)" d="M 210.991915 160.011735 
Q 153.953956 176.405476 97.89812 192.516937 
" style="fill:none;stroke:#000000;stroke-linecap:round;stroke-opacity:0.5;stroke-width:0.914;"/>
    <path clip-path="url(#p13d361c316)" d="M 102.29495 193.334178 
L 97.89812 192.516937 
L 101.190011 189.489817 
L 102.29495 193.334178 
z
" style="fill-opacity:0.5;stroke:#000000;stroke-linecap:round;stroke-opacity:0.5;stroke-width:0.914;"/>
   </g>
   <g id="patch_81">
    <path clip-path="url(#p13d361c316)" d="M 210.991915 160.011735 
Q 257.606107 167.677392 303.397299 175.207708 
" style="fill:none;stroke:#000000;stroke-linecap:round;stroke-opacity:0.5;stroke-width:0.746;"/>
    <path clip-path="url(#p13d361c316)" d="M 299.774852 172.585137 
L 303.397299 175.207708 
L 299.125774 176.532123 
L 299.774852 172.585137 
z
" style="fill-opacity:0.5;stroke:#000000;stroke-linecap:round;stroke-opacity:0.5;stroke-width:0.746;"/>
   </g>
   <g id="patch_82">
    <path clip-path="url(#p13d361c316)" d="M 210.991915 160.011735 
Q 290.860616 195.484601 369.406103 230.369774 
" style="fill:none;stroke:#000000;stroke-linecap:round;stroke-opacity:0.5;stroke-width:1.295;"/>
    <path clip-path="url(#p13d361c316)" d="M 366.562255 226.918321 
L 369.406103 230.369774 
L 364.938631 230.57398 
L 366.562255 226.918321 
z
" style="fill-opacity:0.5;stroke:#000000;stroke-linecap:round;stroke-opacity:0.5;stroke-width:1.295;"/>
   </g>
   <g id="patch_83">
    <path clip-path="url(#p13d361c316)" d="M 312.7645 176.748135 
Q 291.285807 220.677388 270.128779 263.948757 
" style="fill:none;stroke:#000000;stroke-linecap:round;stroke-opacity:0.5;stroke-width:0.655;"/>
    <path clip-path="url(#p13d361c316)" d="M 273.682496 261.233781 
L 270.128779 263.948757 
L 270.089029 259.476798 
L 273.682496 261.233781 
z
" style="fill-opacity:0.5;stroke:#000000;stroke-linecap:round;stroke-opacity:0.5;stroke-width:0.655;"/>
   </g>
   <g id="patch_84">
    <path clip-path="url(#p13d361c316)" d="M 312.7645 176.748135 
Q 331.600536 214.543562 350.150322 251.764615 
" style="fill:none;stroke:#000000;stroke-linecap:round;stroke-opacity:0.5;stroke-width:0.574;"/>
    <path clip-path="url(#p13d361c316)" d="M 350.156164 247.292483 
L 350.150322 251.764615 
L 346.576122 249.076662 
L 350.156164 247.292483 
z
" style="fill-opacity:0.5;stroke:#000000;stroke-linecap:round;stroke-opacity:0.5;stroke-width:0.574;"/>
   </g>
   <g id="patch_85">
    <path clip-path="url(#p13d361c316)" d="M 312.7645 176.748135 
Q 204.992257 185.6152 99.04073 194.332465 
" style="fill:none;stroke:#000000;stroke-linecap:round;stroke-opacity:0.5;stroke-width:1.634;"/>
    <path clip-path="url(#p13d361c316)" d="M 103.191258 195.997734 
L 99.04073 194.332465 
L 102.863262 192.011205 
L 103.191258 195.997734 
z
" style="fill-opacity:0.5;stroke:#000000;stroke-linecap:round;stroke-opacity:0.5;stroke-width:1.634;"/>
   </g>
   <g id="patch_86">
    <path clip-path="url(#p13d361c316)" d="M 312.7645 176.748135 
Q 342.4472 202.757003 371.637137 228.334097 
" style="fill:none;stroke:#000000;stroke-linecap:round;stroke-opacity:0.5;stroke-width:0.586;"/>
    <path clip-path="url(#p13d361c316)" d="M 369.946721 224.193748 
L 371.637137 228.334097 
L 367.310608 227.20222 
L 369.946721 224.193748 
z
" style="fill-opacity:0.5;stroke:#000000;stroke-linecap:round;stroke-opacity:0.5;stroke-width:0.586;"/>
   </g>
   <g id="patch_87">
    <path clip-path="url(#p13d361c316)" d="M 88.589752 195.19233 
Q 173.326934 232.061181 256.66267 268.320268 
" style="fill:none;stroke:#000000;stroke-linecap:round;stroke-opacity:0.5;stroke-width:1.367;"/>
    <path clip-path="url(#p13d361c316)" d="M 253.792747 264.890466 
L 256.66267 268.320268 
L 252.196874 268.558325 
L 253.792747 264.890466 
z
" style="fill-opacity:0.5;stroke:#000000;stroke-linecap:round;stroke-opacity:0.5;stroke-width:1.367;"/>
   </g>
   <g id="patch_88">
    <path clip-path="url(#p13d361c316)" d="M 88.589752 195.19233 
Q 217.237797 226.613078 343.747295 257.511513 
" style="fill:none;stroke:#000000;stroke-linecap:round;stroke-opacity:0.5;stroke-width:1.969;"/>
    <path clip-path="url(#p13d361c316)" d="M 340.336041 254.619566 
L 343.747295 257.511513 
L 339.386986 258.505347 
L 340.336041 254.619566 
z
" style="fill-opacity:0.5;stroke:#000000;stroke-linecap:round;stroke-opacity:0.5;stroke-width:1.969;"/>
   </g>
   <g id="patch_89">
    <path clip-path="url(#p13d361c316)" d="M 88.589752 195.19233 
Q 229.324833 214.250907 367.708906 232.991108 
" style="fill:none;stroke:#000000;stroke-linecap:round;stroke-opacity:0.5;stroke-width:2.122;"/>
    <path clip-path="url(#p13d361c316)" d="M 364.013481 230.472411 
L 367.708906 232.991108 
L 363.476694 234.43623 
L 364.013481 230.472411 
z
" style="fill-opacity:0.5;stroke:#000000;stroke-linecap:round;stroke-opacity:0.5;stroke-width:2.122;"/>
   </g>
   <g id="patch_90">
    <path clip-path="url(#p13d361c316)" d="M 378.641619 234.471634 
Q 369.452114 244.14209 360.441286 253.624519 
" style="fill:none;stroke:#000000;stroke-linecap:round;stroke-opacity:0.5;stroke-width:0.232;"/>
    <path clip-path="url(#p13d361c316)" d="M 364.646495 252.102607 
L 360.441286 253.624519 
L 361.746882 249.347204 
L 364.646495 252.102607 
z
" style="fill-opacity:0.5;stroke:#000000;stroke-linecap:round;stroke-opacity:0.5;stroke-width:0.232;"/>
   </g>
   <g id="patch_91">
    <path clip-path="url(#p13d361c316)" d="M 378.641619 234.471634 
Q 326.425436 252.04727 275.10887 269.320101 
" style="fill:none;stroke:#000000;stroke-linecap:round;stroke-opacity:0.5;stroke-width:0.849;"/>
    <path clip-path="url(#p13d361c316)" d="M 279.537893 269.939576 
L 275.10887 269.320101 
L 278.261864 266.148567 
L 279.537893 269.939576 
z
" style="fill-opacity:0.5;stroke:#000000;stroke-linecap:round;stroke-opacity:0.5;stroke-width:0.849;"/>
   </g>
   <g id="patch_92">
    <path clip-path="url(#p13d361c316)" d="M 354.298717 260.088571 
Q 314.439776 265.639429 275.296181 271.090666 
" style="fill:none;stroke:#000000;stroke-linecap:round;stroke-opacity:0.5;stroke-width:0.646;"/>
    <path clip-path="url(#p13d361c316)" d="M 279.533811 272.519823 
L 275.296181 271.090666 
L 278.982085 268.558056 
L 279.533811 272.519823 
z
" style="fill-opacity:0.5;stroke:#000000;stroke-linecap:round;stroke-opacity:0.5;stroke-width:0.646;"/>
   </g>
   <g id="matplotlib.axis_1">
    <g id="xtick_1"/>
    <g id="xtick_2"/>
    <g id="xtick_3"/>
    <g id="xtick_4"/>
    <g id="xtick_5"/>
    <g id="xtick_6"/>
   </g>
   <g id="matplotlib.axis_2">
    <g id="ytick_1"/>
    <g id="ytick_2"/>
    <g id="ytick_3"/>
    <g id="ytick_4"/>
    <g id="ytick_5"/>
    <g id="ytick_6"/>
    <g id="ytick_7"/>
   </g>
   <g id="PathCollection_1">
    <defs>
     <path d="M 0 5 
C 1.326016 5 2.597899 4.473168 3.535534 3.535534 
C 4.473168 2.597899 5 1.326016 5 0 
C 5 -1.326016 4.473168 -2.597899 3.535534 -3.535534 
C 2.597899 -4.473168 1.326016 -5 0 -5 
C -1.326016 -5 -2.597899 -4.473168 -3.535534 -3.535534 
C -4.473168 -2.597899 -5 -1.326016 -5 0 
C -5 1.326016 -4.473168 2.597899 -3.535534 3.535534 
C -2.597899 4.473168 -1.326016 5 0 5 
z
" id="m2298ae218f" style="stroke:#1f78b4;"/>
    </defs>
    <g clip-path="url(#p13d361c316)">
     <use style="fill:#1f78b4;stroke:#1f78b4;" x="292.822574" xlink:href="#m2298ae218f" y="76.671299"/>
     <use style="fill:#1f78b4;stroke:#1f78b4;" x="361.862895" xlink:href="#m2298ae218f" y="120.220092"/>
     <use style="fill:#1f78b4;stroke:#1f78b4;" x="329.955815" xlink:href="#m2298ae218f" y="124.148023"/>
     <use style="fill:#1f78b4;stroke:#1f78b4;" x="383.730248" xlink:href="#m2298ae218f" y="148.398724"/>
     <use style="fill:#1f78b4;stroke:#1f78b4;" x="210.991915" xlink:href="#m2298ae218f" y="160.011735"/>
     <use style="fill:#1f78b4;stroke:#1f78b4;" x="312.7645" xlink:href="#m2298ae218f" y="176.748135"/>
     <use style="fill:#1f78b4;stroke:#1f78b4;" x="88.589752" xlink:href="#m2298ae218f" y="195.19233"/>
     <use style="fill:#1f78b4;stroke:#1f78b4;" x="378.641619" xlink:href="#m2298ae218f" y="234.471634"/>
     <use style="fill:#1f78b4;stroke:#1f78b4;" x="354.298717" xlink:href="#m2298ae218f" y="260.088571"/>
     <use style="fill:#1f78b4;stroke:#1f78b4;" x="266.004123" xlink:href="#m2298ae218f" y="272.384701"/>
    </g>
   </g>
   <g id="patch_93">
    <path d="M 57.6 307.584 
L 57.6 41.472 
" style="fill:none;stroke:#000000;stroke-linecap:square;stroke-linejoin:miter;stroke-width:0.8;"/>
   </g>
   <g id="patch_94">
    <path d="M 414.72 307.584 
L 414.72 41.472 
" style="fill:none;stroke:#000000;stroke-linecap:square;stroke-linejoin:miter;stroke-width:0.8;"/>
   </g>
   <g id="patch_95">
    <path d="M 57.6 307.584 
L 414.72 307.584 
" style="fill:none;stroke:#000000;stroke-linecap:square;stroke-linejoin:miter;stroke-width:0.8;"/>
   </g>
   <g id="patch_96">
    <path d="M 57.6 41.472 
L 414.72 41.472 
" style="fill:none;stroke:#000000;stroke-linecap:square;stroke-linejoin:miter;stroke-width:0.8;"/>
   </g>
   <g id="text_1">
    <g clip-path="url(#p13d361c316)">
     <!-- Minneapolis-St Paul Intl/Wold- -->
     <defs>
      <path d="M 9.8125 72.90625 
L 24.515625 72.90625 
L 43.109375 23.296875 
L 61.8125 72.90625 
L 76.515625 72.90625 
L 76.515625 0 
L 66.890625 0 
L 66.890625 64.015625 
L 48.09375 14.015625 
L 38.1875 14.015625 
L 19.390625 64.015625 
L 19.390625 0 
L 9.8125 0 
z
" id="DejaVuSans-77"/>
      <path d="M 9.421875 54.6875 
L 18.40625 54.6875 
L 18.40625 0 
L 9.421875 0 
z
M 9.421875 75.984375 
L 18.40625 75.984375 
L 18.40625 64.59375 
L 9.421875 64.59375 
z
" id="DejaVuSans-105"/>
      <path d="M 54.890625 33.015625 
L 54.890625 0 
L 45.90625 0 
L 45.90625 32.71875 
Q 45.90625 40.484375 42.875 44.328125 
Q 39.84375 48.1875 33.796875 48.1875 
Q 26.515625 48.1875 22.3125 43.546875 
Q 18.109375 38.921875 18.109375 30.90625 
L 18.109375 0 
L 9.078125 0 
L 9.078125 54.6875 
L 18.109375 54.6875 
L 18.109375 46.1875 
Q 21.34375 51.125 25.703125 53.5625 
Q 30.078125 56 35.796875 56 
Q 45.21875 56 50.046875 50.171875 
Q 54.890625 44.34375 54.890625 33.015625 
z
" id="DejaVuSans-110"/>
      <path d="M 56.203125 29.59375 
L 56.203125 25.203125 
L 14.890625 25.203125 
Q 15.484375 15.921875 20.484375 11.0625 
Q 25.484375 6.203125 34.421875 6.203125 
Q 39.59375 6.203125 44.453125 7.46875 
Q 49.3125 8.734375 54.109375 11.28125 
L 54.109375 2.78125 
Q 49.265625 0.734375 44.1875 -0.34375 
Q 39.109375 -1.421875 33.890625 -1.421875 
Q 20.796875 -1.421875 13.15625 6.1875 
Q 5.515625 13.8125 5.515625 26.8125 
Q 5.515625 40.234375 12.765625 48.109375 
Q 20.015625 56 32.328125 56 
Q 43.359375 56 49.78125 48.890625 
Q 56.203125 41.796875 56.203125 29.59375 
z
M 47.21875 32.234375 
Q 47.125 39.59375 43.09375 43.984375 
Q 39.0625 48.390625 32.421875 48.390625 
Q 24.90625 48.390625 20.390625 44.140625 
Q 15.875 39.890625 15.1875 32.171875 
z
" id="DejaVuSans-101"/>
      <path d="M 34.28125 27.484375 
Q 23.390625 27.484375 19.1875 25 
Q 14.984375 22.515625 14.984375 16.5 
Q 14.984375 11.71875 18.140625 8.90625 
Q 21.296875 6.109375 26.703125 6.109375 
Q 34.1875 6.109375 38.703125 11.40625 
Q 43.21875 16.703125 43.21875 25.484375 
L 43.21875 27.484375 
z
M 52.203125 31.203125 
L 52.203125 0 
L 43.21875 0 
L 43.21875 8.296875 
Q 40.140625 3.328125 35.546875 0.953125 
Q 30.953125 -1.421875 24.3125 -1.421875 
Q 15.921875 -1.421875 10.953125 3.296875 
Q 6 8.015625 6 15.921875 
Q 6 25.140625 12.171875 29.828125 
Q 18.359375 34.515625 30.609375 34.515625 
L 43.21875 34.515625 
L 43.21875 35.40625 
Q 43.21875 41.609375 39.140625 45 
Q 35.0625 48.390625 27.6875 48.390625 
Q 23 48.390625 18.546875 47.265625 
Q 14.109375 46.140625 10.015625 43.890625 
L 10.015625 52.203125 
Q 14.9375 54.109375 19.578125 55.046875 
Q 24.21875 56 28.609375 56 
Q 40.484375 56 46.34375 49.84375 
Q 52.203125 43.703125 52.203125 31.203125 
z
" id="DejaVuSans-97"/>
      <path d="M 18.109375 8.203125 
L 18.109375 -20.796875 
L 9.078125 -20.796875 
L 9.078125 54.6875 
L 18.109375 54.6875 
L 18.109375 46.390625 
Q 20.953125 51.265625 25.265625 53.625 
Q 29.59375 56 35.59375 56 
Q 45.5625 56 51.78125 48.09375 
Q 58.015625 40.1875 58.015625 27.296875 
Q 58.015625 14.40625 51.78125 6.484375 
Q 45.5625 -1.421875 35.59375 -1.421875 
Q 29.59375 -1.421875 25.265625 0.953125 
Q 20.953125 3.328125 18.109375 8.203125 
z
M 48.6875 27.296875 
Q 48.6875 37.203125 44.609375 42.84375 
Q 40.53125 48.484375 33.40625 48.484375 
Q 26.265625 48.484375 22.1875 42.84375 
Q 18.109375 37.203125 18.109375 27.296875 
Q 18.109375 17.390625 22.1875 11.75 
Q 26.265625 6.109375 33.40625 6.109375 
Q 40.53125 6.109375 44.609375 11.75 
Q 48.6875 17.390625 48.6875 27.296875 
z
" id="DejaVuSans-112"/>
      <path d="M 30.609375 48.390625 
Q 23.390625 48.390625 19.1875 42.75 
Q 14.984375 37.109375 14.984375 27.296875 
Q 14.984375 17.484375 19.15625 11.84375 
Q 23.34375 6.203125 30.609375 6.203125 
Q 37.796875 6.203125 41.984375 11.859375 
Q 46.1875 17.53125 46.1875 27.296875 
Q 46.1875 37.015625 41.984375 42.703125 
Q 37.796875 48.390625 30.609375 48.390625 
z
M 30.609375 56 
Q 42.328125 56 49.015625 48.375 
Q 55.71875 40.765625 55.71875 27.296875 
Q 55.71875 13.875 49.015625 6.21875 
Q 42.328125 -1.421875 30.609375 -1.421875 
Q 18.84375 -1.421875 12.171875 6.21875 
Q 5.515625 13.875 5.515625 27.296875 
Q 5.515625 40.765625 12.171875 48.375 
Q 18.84375 56 30.609375 56 
z
" id="DejaVuSans-111"/>
      <path d="M 9.421875 75.984375 
L 18.40625 75.984375 
L 18.40625 0 
L 9.421875 0 
z
" id="DejaVuSans-108"/>
      <path d="M 44.28125 53.078125 
L 44.28125 44.578125 
Q 40.484375 46.53125 36.375 47.5 
Q 32.28125 48.484375 27.875 48.484375 
Q 21.1875 48.484375 17.84375 46.4375 
Q 14.5 44.390625 14.5 40.28125 
Q 14.5 37.15625 16.890625 35.375 
Q 19.28125 33.59375 26.515625 31.984375 
L 29.59375 31.296875 
Q 39.15625 29.25 43.1875 25.515625 
Q 47.21875 21.78125 47.21875 15.09375 
Q 47.21875 7.46875 41.1875 3.015625 
Q 35.15625 -1.421875 24.609375 -1.421875 
Q 20.21875 -1.421875 15.453125 -0.5625 
Q 10.6875 0.296875 5.421875 2 
L 5.421875 11.28125 
Q 10.40625 8.6875 15.234375 7.390625 
Q 20.0625 6.109375 24.8125 6.109375 
Q 31.15625 6.109375 34.5625 8.28125 
Q 37.984375 10.453125 37.984375 14.40625 
Q 37.984375 18.0625 35.515625 20.015625 
Q 33.0625 21.96875 24.703125 23.78125 
L 21.578125 24.515625 
Q 13.234375 26.265625 9.515625 29.90625 
Q 5.8125 33.546875 5.8125 39.890625 
Q 5.8125 47.609375 11.28125 51.796875 
Q 16.75 56 26.8125 56 
Q 31.78125 56 36.171875 55.265625 
Q 40.578125 54.546875 44.28125 53.078125 
z
" id="DejaVuSans-115"/>
      <path d="M 4.890625 31.390625 
L 31.203125 31.390625 
L 31.203125 23.390625 
L 4.890625 23.390625 
z
" id="DejaVuSans-45"/>
      <path d="M 53.515625 70.515625 
L 53.515625 60.890625 
Q 47.90625 63.578125 42.921875 64.890625 
Q 37.9375 66.21875 33.296875 66.21875 
Q 25.25 66.21875 20.875 63.09375 
Q 16.5 59.96875 16.5 54.203125 
Q 16.5 49.359375 19.40625 46.890625 
Q 22.3125 44.4375 30.421875 42.921875 
L 36.375 41.703125 
Q 47.40625 39.59375 52.65625 34.296875 
Q 57.90625 29 57.90625 20.125 
Q 57.90625 9.515625 50.796875 4.046875 
Q 43.703125 -1.421875 29.984375 -1.421875 
Q 24.8125 -1.421875 18.96875 -0.25 
Q 13.140625 0.921875 6.890625 3.21875 
L 6.890625 13.375 
Q 12.890625 10.015625 18.65625 8.296875 
Q 24.421875 6.59375 29.984375 6.59375 
Q 38.421875 6.59375 43.015625 9.90625 
Q 47.609375 13.234375 47.609375 19.390625 
Q 47.609375 24.75 44.3125 27.78125 
Q 41.015625 30.8125 33.5 32.328125 
L 27.484375 33.5 
Q 16.453125 35.6875 11.515625 40.375 
Q 6.59375 45.0625 6.59375 53.421875 
Q 6.59375 63.09375 13.40625 68.65625 
Q 20.21875 74.21875 32.171875 74.21875 
Q 37.3125 74.21875 42.625 73.28125 
Q 47.953125 72.359375 53.515625 70.515625 
z
" id="DejaVuSans-83"/>
      <path d="M 18.3125 70.21875 
L 18.3125 54.6875 
L 36.8125 54.6875 
L 36.8125 47.703125 
L 18.3125 47.703125 
L 18.3125 18.015625 
Q 18.3125 11.328125 20.140625 9.421875 
Q 21.96875 7.515625 27.59375 7.515625 
L 36.8125 7.515625 
L 36.8125 0 
L 27.59375 0 
Q 17.1875 0 13.234375 3.875 
Q 9.28125 7.765625 9.28125 18.015625 
L 9.28125 47.703125 
L 2.6875 47.703125 
L 2.6875 54.6875 
L 9.28125 54.6875 
L 9.28125 70.21875 
z
" id="DejaVuSans-116"/>
      <path id="DejaVuSans-32"/>
      <path d="M 19.671875 64.796875 
L 19.671875 37.40625 
L 32.078125 37.40625 
Q 38.96875 37.40625 42.71875 40.96875 
Q 46.484375 44.53125 46.484375 51.125 
Q 46.484375 57.671875 42.71875 61.234375 
Q 38.96875 64.796875 32.078125 64.796875 
z
M 9.8125 72.90625 
L 32.078125 72.90625 
Q 44.34375 72.90625 50.609375 67.359375 
Q 56.890625 61.8125 56.890625 51.125 
Q 56.890625 40.328125 50.609375 34.8125 
Q 44.34375 29.296875 32.078125 29.296875 
L 19.671875 29.296875 
L 19.671875 0 
L 9.8125 0 
z
" id="DejaVuSans-80"/>
      <path d="M 8.5 21.578125 
L 8.5 54.6875 
L 17.484375 54.6875 
L 17.484375 21.921875 
Q 17.484375 14.15625 20.5 10.265625 
Q 23.53125 6.390625 29.59375 6.390625 
Q 36.859375 6.390625 41.078125 11.03125 
Q 45.3125 15.671875 45.3125 23.6875 
L 45.3125 54.6875 
L 54.296875 54.6875 
L 54.296875 0 
L 45.3125 0 
L 45.3125 8.40625 
Q 42.046875 3.421875 37.71875 1 
Q 33.40625 -1.421875 27.6875 -1.421875 
Q 18.265625 -1.421875 13.375 4.4375 
Q 8.5 10.296875 8.5 21.578125 
z
M 31.109375 56 
z
" id="DejaVuSans-117"/>
      <path d="M 9.8125 72.90625 
L 19.671875 72.90625 
L 19.671875 0 
L 9.8125 0 
z
" id="DejaVuSans-73"/>
      <path d="M 25.390625 72.90625 
L 33.6875 72.90625 
L 8.296875 -9.28125 
L 0 -9.28125 
z
" id="DejaVuSans-47"/>
      <path d="M 3.328125 72.90625 
L 13.28125 72.90625 
L 28.609375 11.28125 
L 43.890625 72.90625 
L 54.984375 72.90625 
L 70.3125 11.28125 
L 85.59375 72.90625 
L 95.609375 72.90625 
L 77.296875 0 
L 64.890625 0 
L 49.515625 63.28125 
L 33.984375 0 
L 21.578125 0 
z
" id="DejaVuSans-87"/>
      <path d="M 45.40625 46.390625 
L 45.40625 75.984375 
L 54.390625 75.984375 
L 54.390625 0 
L 45.40625 0 
L 45.40625 8.203125 
Q 42.578125 3.328125 38.25 0.953125 
Q 33.9375 -1.421875 27.875 -1.421875 
Q 17.96875 -1.421875 11.734375 6.484375 
Q 5.515625 14.40625 5.515625 27.296875 
Q 5.515625 40.1875 11.734375 48.09375 
Q 17.96875 56 27.875 56 
Q 33.9375 56 38.25 53.625 
Q 42.578125 51.265625 45.40625 46.390625 
z
M 14.796875 27.296875 
Q 14.796875 17.390625 18.875 11.75 
Q 22.953125 6.109375 30.078125 6.109375 
Q 37.203125 6.109375 41.296875 11.75 
Q 45.40625 17.390625 45.40625 27.296875 
Q 45.40625 37.203125 41.296875 42.84375 
Q 37.203125 48.484375 30.078125 48.484375 
Q 22.953125 48.484375 18.875 42.84375 
Q 14.796875 37.203125 14.796875 27.296875 
z
" id="DejaVuSans-100"/>
     </defs>
     <g transform="translate(203.312887 79.982549)scale(0.12 -0.12)">
      <use xlink:href="#DejaVuSans-77"/>
      <use x="86.279297" xlink:href="#DejaVuSans-105"/>
      <use x="114.0625" xlink:href="#DejaVuSans-110"/>
      <use x="177.441406" xlink:href="#DejaVuSans-110"/>
      <use x="240.820312" xlink:href="#DejaVuSans-101"/>
      <use x="302.34375" xlink:href="#DejaVuSans-97"/>
      <use x="363.623047" xlink:href="#DejaVuSans-112"/>
      <use x="427.099609" xlink:href="#DejaVuSans-111"/>
      <use x="488.28125" xlink:href="#DejaVuSans-108"/>
      <use x="516.064453" xlink:href="#DejaVuSans-105"/>
      <use x="543.847656" xlink:href="#DejaVuSans-115"/>
      <use x="595.947266" xlink:href="#DejaVuSans-45"/>
      <use x="632.03125" xlink:href="#DejaVuSans-83"/>
      <use x="695.507812" xlink:href="#DejaVuSans-116"/>
      <use x="734.716797" xlink:href="#DejaVuSans-32"/>
      <use x="766.503906" xlink:href="#DejaVuSans-80"/>
      <use x="826.744141" xlink:href="#DejaVuSans-97"/>
      <use x="888.023438" xlink:href="#DejaVuSans-117"/>
      <use x="951.402344" xlink:href="#DejaVuSans-108"/>
      <use x="979.185547" xlink:href="#DejaVuSans-32"/>
      <use x="1010.972656" xlink:href="#DejaVuSans-73"/>
      <use x="1040.464844" xlink:href="#DejaVuSans-110"/>
      <use x="1103.84375" xlink:href="#DejaVuSans-116"/>
      <use x="1143.052734" xlink:href="#DejaVuSans-108"/>
      <use x="1170.835938" xlink:href="#DejaVuSans-47"/>
      <use x="1204.527344" xlink:href="#DejaVuSans-87"/>
      <use x="1303.326172" xlink:href="#DejaVuSans-111"/>
      <use x="1364.507812" xlink:href="#DejaVuSans-108"/>
      <use x="1392.291016" xlink:href="#DejaVuSans-100"/>
      <use x="1455.767578" xlink:href="#DejaVuSans-45"/>
     </g>
    </g>
   </g>
   <g id="text_2">
    <g clip-path="url(#p13d361c316)">
     <!-- Detroit Metropolitan Wayne Cou -->
     <defs>
      <path d="M 19.671875 64.796875 
L 19.671875 8.109375 
L 31.59375 8.109375 
Q 46.6875 8.109375 53.6875 14.9375 
Q 60.6875 21.78125 60.6875 36.53125 
Q 60.6875 51.171875 53.6875 57.984375 
Q 46.6875 64.796875 31.59375 64.796875 
z
M 9.8125 72.90625 
L 30.078125 72.90625 
Q 51.265625 72.90625 61.171875 64.09375 
Q 71.09375 55.28125 71.09375 36.53125 
Q 71.09375 17.671875 61.125 8.828125 
Q 51.171875 0 30.078125 0 
L 9.8125 0 
z
" id="DejaVuSans-68"/>
      <path d="M 41.109375 46.296875 
Q 39.59375 47.171875 37.8125 47.578125 
Q 36.03125 48 33.890625 48 
Q 26.265625 48 22.1875 43.046875 
Q 18.109375 38.09375 18.109375 28.8125 
L 18.109375 0 
L 9.078125 0 
L 9.078125 54.6875 
L 18.109375 54.6875 
L 18.109375 46.1875 
Q 20.953125 51.171875 25.484375 53.578125 
Q 30.03125 56 36.53125 56 
Q 37.453125 56 38.578125 55.875 
Q 39.703125 55.765625 41.0625 55.515625 
z
" id="DejaVuSans-114"/>
      <path d="M 32.171875 -5.078125 
Q 28.375 -14.84375 24.75 -17.8125 
Q 21.140625 -20.796875 15.09375 -20.796875 
L 7.90625 -20.796875 
L 7.90625 -13.28125 
L 13.1875 -13.28125 
Q 16.890625 -13.28125 18.9375 -11.515625 
Q 21 -9.765625 23.484375 -3.21875 
L 25.09375 0.875 
L 2.984375 54.6875 
L 12.5 54.6875 
L 29.59375 11.921875 
L 46.6875 54.6875 
L 56.203125 54.6875 
z
" id="DejaVuSans-121"/>
      <path d="M 64.40625 67.28125 
L 64.40625 56.890625 
Q 59.421875 61.53125 53.78125 63.8125 
Q 48.140625 66.109375 41.796875 66.109375 
Q 29.296875 66.109375 22.65625 58.46875 
Q 16.015625 50.828125 16.015625 36.375 
Q 16.015625 21.96875 22.65625 14.328125 
Q 29.296875 6.6875 41.796875 6.6875 
Q 48.140625 6.6875 53.78125 8.984375 
Q 59.421875 11.28125 64.40625 15.921875 
L 64.40625 5.609375 
Q 59.234375 2.09375 53.4375 0.328125 
Q 47.65625 -1.421875 41.21875 -1.421875 
Q 24.65625 -1.421875 15.125 8.703125 
Q 5.609375 18.84375 5.609375 36.375 
Q 5.609375 53.953125 15.125 64.078125 
Q 24.65625 74.21875 41.21875 74.21875 
Q 47.75 74.21875 53.53125 72.484375 
Q 59.328125 70.75 64.40625 67.28125 
z
" id="DejaVuSans-67"/>
     </defs>
     <g transform="translate(265.007895 123.531342)scale(0.12 -0.12)">
      <use xlink:href="#DejaVuSans-68"/>
      <use x="77.001953" xlink:href="#DejaVuSans-101"/>
      <use x="138.525391" xlink:href="#DejaVuSans-116"/>
      <use x="177.734375" xlink:href="#DejaVuSans-114"/>
      <use x="218.816406" xlink:href="#DejaVuSans-111"/>
      <use x="279.998047" xlink:href="#DejaVuSans-105"/>
      <use x="307.78125" xlink:href="#DejaVuSans-116"/>
      <use x="346.990234" xlink:href="#DejaVuSans-32"/>
      <use x="378.777344" xlink:href="#DejaVuSans-77"/>
      <use x="465.056641" xlink:href="#DejaVuSans-101"/>
      <use x="526.580078" xlink:href="#DejaVuSans-116"/>
      <use x="565.789062" xlink:href="#DejaVuSans-114"/>
      <use x="606.871094" xlink:href="#DejaVuSans-111"/>
      <use x="668.052734" xlink:href="#DejaVuSans-112"/>
      <use x="731.529297" xlink:href="#DejaVuSans-111"/>
      <use x="792.710938" xlink:href="#DejaVuSans-108"/>
      <use x="820.494141" xlink:href="#DejaVuSans-105"/>
      <use x="848.277344" xlink:href="#DejaVuSans-116"/>
      <use x="887.486328" xlink:href="#DejaVuSans-97"/>
      <use x="948.765625" xlink:href="#DejaVuSans-110"/>
      <use x="1012.144531" xlink:href="#DejaVuSans-32"/>
      <use x="1043.931641" xlink:href="#DejaVuSans-87"/>
      <use x="1142.714844" xlink:href="#DejaVuSans-97"/>
      <use x="1203.994141" xlink:href="#DejaVuSans-121"/>
      <use x="1263.173828" xlink:href="#DejaVuSans-110"/>
      <use x="1326.552734" xlink:href="#DejaVuSans-101"/>
      <use x="1388.076172" xlink:href="#DejaVuSans-32"/>
      <use x="1419.863281" xlink:href="#DejaVuSans-67"/>
      <use x="1489.6875" xlink:href="#DejaVuSans-111"/>
      <use x="1550.869141" xlink:href="#DejaVuSans-117"/>
     </g>
    </g>
   </g>
   <g id="text_3">
    <g clip-path="url(#p13d361c316)">
     <!-- Chicago O'hare Intl -->
     <defs>
      <path d="M 54.890625 33.015625 
L 54.890625 0 
L 45.90625 0 
L 45.90625 32.71875 
Q 45.90625 40.484375 42.875 44.328125 
Q 39.84375 48.1875 33.796875 48.1875 
Q 26.515625 48.1875 22.3125 43.546875 
Q 18.109375 38.921875 18.109375 30.90625 
L 18.109375 0 
L 9.078125 0 
L 9.078125 75.984375 
L 18.109375 75.984375 
L 18.109375 46.1875 
Q 21.34375 51.125 25.703125 53.5625 
Q 30.078125 56 35.796875 56 
Q 45.21875 56 50.046875 50.171875 
Q 54.890625 44.34375 54.890625 33.015625 
z
" id="DejaVuSans-104"/>
      <path d="M 48.78125 52.59375 
L 48.78125 44.1875 
Q 44.96875 46.296875 41.140625 47.34375 
Q 37.3125 48.390625 33.40625 48.390625 
Q 24.65625 48.390625 19.8125 42.84375 
Q 14.984375 37.3125 14.984375 27.296875 
Q 14.984375 17.28125 19.8125 11.734375 
Q 24.65625 6.203125 33.40625 6.203125 
Q 37.3125 6.203125 41.140625 7.25 
Q 44.96875 8.296875 48.78125 10.40625 
L 48.78125 2.09375 
Q 45.015625 0.34375 40.984375 -0.53125 
Q 36.96875 -1.421875 32.421875 -1.421875 
Q 20.0625 -1.421875 12.78125 6.34375 
Q 5.515625 14.109375 5.515625 27.296875 
Q 5.515625 40.671875 12.859375 48.328125 
Q 20.21875 56 33.015625 56 
Q 37.15625 56 41.109375 55.140625 
Q 45.0625 54.296875 48.78125 52.59375 
z
" id="DejaVuSans-99"/>
      <path d="M 45.40625 27.984375 
Q 45.40625 37.75 41.375 43.109375 
Q 37.359375 48.484375 30.078125 48.484375 
Q 22.859375 48.484375 18.828125 43.109375 
Q 14.796875 37.75 14.796875 27.984375 
Q 14.796875 18.265625 18.828125 12.890625 
Q 22.859375 7.515625 30.078125 7.515625 
Q 37.359375 7.515625 41.375 12.890625 
Q 45.40625 18.265625 45.40625 27.984375 
z
M 54.390625 6.78125 
Q 54.390625 -7.171875 48.1875 -13.984375 
Q 42 -20.796875 29.203125 -20.796875 
Q 24.46875 -20.796875 20.265625 -20.09375 
Q 16.0625 -19.390625 12.109375 -17.921875 
L 12.109375 -9.1875 
Q 16.0625 -11.328125 19.921875 -12.34375 
Q 23.78125 -13.375 27.78125 -13.375 
Q 36.625 -13.375 41.015625 -8.765625 
Q 45.40625 -4.15625 45.40625 5.171875 
L 45.40625 9.625 
Q 42.625 4.78125 38.28125 2.390625 
Q 33.9375 0 27.875 0 
Q 17.828125 0 11.671875 7.65625 
Q 5.515625 15.328125 5.515625 27.984375 
Q 5.515625 40.671875 11.671875 48.328125 
Q 17.828125 56 27.875 56 
Q 33.9375 56 38.28125 53.609375 
Q 42.625 51.21875 45.40625 46.390625 
L 45.40625 54.6875 
L 54.390625 54.6875 
z
" id="DejaVuSans-103"/>
      <path d="M 39.40625 66.21875 
Q 28.65625 66.21875 22.328125 58.203125 
Q 16.015625 50.203125 16.015625 36.375 
Q 16.015625 22.609375 22.328125 14.59375 
Q 28.65625 6.59375 39.40625 6.59375 
Q 50.140625 6.59375 56.421875 14.59375 
Q 62.703125 22.609375 62.703125 36.375 
Q 62.703125 50.203125 56.421875 58.203125 
Q 50.140625 66.21875 39.40625 66.21875 
z
M 39.40625 74.21875 
Q 54.734375 74.21875 63.90625 63.9375 
Q 73.09375 53.65625 73.09375 36.375 
Q 73.09375 19.140625 63.90625 8.859375 
Q 54.734375 -1.421875 39.40625 -1.421875 
Q 24.03125 -1.421875 14.8125 8.828125 
Q 5.609375 19.09375 5.609375 36.375 
Q 5.609375 53.65625 14.8125 63.9375 
Q 24.03125 74.21875 39.40625 74.21875 
z
" id="DejaVuSans-79"/>
      <path d="M 17.921875 72.90625 
L 17.921875 45.796875 
L 9.625 45.796875 
L 9.625 72.90625 
z
" id="DejaVuSans-39"/>
     </defs>
     <g transform="translate(272.427065 127.459273)scale(0.12 -0.12)">
      <use xlink:href="#DejaVuSans-67"/>
      <use x="69.824219" xlink:href="#DejaVuSans-104"/>
      <use x="133.203125" xlink:href="#DejaVuSans-105"/>
      <use x="160.986328" xlink:href="#DejaVuSans-99"/>
      <use x="215.966797" xlink:href="#DejaVuSans-97"/>
      <use x="277.246094" xlink:href="#DejaVuSans-103"/>
      <use x="340.722656" xlink:href="#DejaVuSans-111"/>
      <use x="401.904297" xlink:href="#DejaVuSans-32"/>
      <use x="433.691406" xlink:href="#DejaVuSans-79"/>
      <use x="512.402344" xlink:href="#DejaVuSans-39"/>
      <use x="539.892578" xlink:href="#DejaVuSans-104"/>
      <use x="603.271484" xlink:href="#DejaVuSans-97"/>
      <use x="664.550781" xlink:href="#DejaVuSans-114"/>
      <use x="705.632812" xlink:href="#DejaVuSans-101"/>
      <use x="767.15625" xlink:href="#DejaVuSans-32"/>
      <use x="798.943359" xlink:href="#DejaVuSans-73"/>
      <use x="828.435547" xlink:href="#DejaVuSans-110"/>
      <use x="891.814453" xlink:href="#DejaVuSans-116"/>
      <use x="931.023438" xlink:href="#DejaVuSans-108"/>
     </g>
    </g>
   </g>
   <g id="text_4">
    <g clip-path="url(#p13d361c316)">
     <!-- Pittsburgh Intll -->
     <defs>
      <path d="M 48.6875 27.296875 
Q 48.6875 37.203125 44.609375 42.84375 
Q 40.53125 48.484375 33.40625 48.484375 
Q 26.265625 48.484375 22.1875 42.84375 
Q 18.109375 37.203125 18.109375 27.296875 
Q 18.109375 17.390625 22.1875 11.75 
Q 26.265625 6.109375 33.40625 6.109375 
Q 40.53125 6.109375 44.609375 11.75 
Q 48.6875 17.390625 48.6875 27.296875 
z
M 18.109375 46.390625 
Q 20.953125 51.265625 25.265625 53.625 
Q 29.59375 56 35.59375 56 
Q 45.5625 56 51.78125 48.09375 
Q 58.015625 40.1875 58.015625 27.296875 
Q 58.015625 14.40625 51.78125 6.484375 
Q 45.5625 -1.421875 35.59375 -1.421875 
Q 29.59375 -1.421875 25.265625 0.953125 
Q 20.953125 3.328125 18.109375 8.203125 
L 18.109375 0 
L 9.078125 0 
L 9.078125 75.984375 
L 18.109375 75.984375 
z
" id="DejaVuSans-98"/>
     </defs>
     <g transform="translate(339.763373 151.709974)scale(0.12 -0.12)">
      <use xlink:href="#DejaVuSans-80"/>
      <use x="60.271484" xlink:href="#DejaVuSans-105"/>
      <use x="88.054688" xlink:href="#DejaVuSans-116"/>
      <use x="127.263672" xlink:href="#DejaVuSans-116"/>
      <use x="166.472656" xlink:href="#DejaVuSans-115"/>
      <use x="218.572266" xlink:href="#DejaVuSans-98"/>
      <use x="282.048828" xlink:href="#DejaVuSans-117"/>
      <use x="345.427734" xlink:href="#DejaVuSans-114"/>
      <use x="386.525391" xlink:href="#DejaVuSans-103"/>
      <use x="450.001953" xlink:href="#DejaVuSans-104"/>
      <use x="513.380859" xlink:href="#DejaVuSans-32"/>
      <use x="545.167969" xlink:href="#DejaVuSans-73"/>
      <use x="574.660156" xlink:href="#DejaVuSans-110"/>
      <use x="638.039062" xlink:href="#DejaVuSans-116"/>
      <use x="677.248047" xlink:href="#DejaVuSans-108"/>
      <use x="705.03125" xlink:href="#DejaVuSans-108"/>
     </g>
    </g>
   </g>
   <g id="text_5">
    <g clip-path="url(#p13d361c316)">
     <!-- Stapleton Intl -->
     <g transform="translate(170.661602 163.322985)scale(0.12 -0.12)">
      <use xlink:href="#DejaVuSans-83"/>
      <use x="63.476562" xlink:href="#DejaVuSans-116"/>
      <use x="102.685547" xlink:href="#DejaVuSans-97"/>
      <use x="163.964844" xlink:href="#DejaVuSans-112"/>
      <use x="227.441406" xlink:href="#DejaVuSans-108"/>
      <use x="255.224609" xlink:href="#DejaVuSans-101"/>
      <use x="316.748047" xlink:href="#DejaVuSans-116"/>
      <use x="355.957031" xlink:href="#DejaVuSans-111"/>
      <use x="417.138672" xlink:href="#DejaVuSans-110"/>
      <use x="480.517578" xlink:href="#DejaVuSans-32"/>
      <use x="512.304688" xlink:href="#DejaVuSans-73"/>
      <use x="541.796875" xlink:href="#DejaVuSans-110"/>
      <use x="605.175781" xlink:href="#DejaVuSans-116"/>
      <use x="644.384766" xlink:href="#DejaVuSans-108"/>
     </g>
    </g>
   </g>
   <g id="text_6">
    <g clip-path="url(#p13d361c316)">
     <!-- Lambert-St Louis Intl -->
     <defs>
      <path d="M 9.8125 72.90625 
L 19.671875 72.90625 
L 19.671875 8.296875 
L 55.171875 8.296875 
L 55.171875 0 
L 9.8125 0 
z
" id="DejaVuSans-76"/>
      <path d="M 52 44.1875 
Q 55.375 50.25 60.0625 53.125 
Q 64.75 56 71.09375 56 
Q 79.640625 56 84.28125 50.015625 
Q 88.921875 44.046875 88.921875 33.015625 
L 88.921875 0 
L 79.890625 0 
L 79.890625 32.71875 
Q 79.890625 40.578125 77.09375 44.375 
Q 74.3125 48.1875 68.609375 48.1875 
Q 61.625 48.1875 57.5625 43.546875 
Q 53.515625 38.921875 53.515625 30.90625 
L 53.515625 0 
L 44.484375 0 
L 44.484375 32.71875 
Q 44.484375 40.625 41.703125 44.40625 
Q 38.921875 48.1875 33.109375 48.1875 
Q 26.21875 48.1875 22.15625 43.53125 
Q 18.109375 38.875 18.109375 30.90625 
L 18.109375 0 
L 9.078125 0 
L 9.078125 54.6875 
L 18.109375 54.6875 
L 18.109375 46.1875 
Q 21.1875 51.21875 25.484375 53.609375 
Q 29.78125 56 35.6875 56 
Q 41.65625 56 45.828125 52.96875 
Q 50 49.953125 52 44.1875 
z
" id="DejaVuSans-109"/>
     </defs>
     <g transform="translate(250.24075 180.059385)scale(0.12 -0.12)">
      <use xlink:href="#DejaVuSans-76"/>
      <use x="55.712891" xlink:href="#DejaVuSans-97"/>
      <use x="116.992188" xlink:href="#DejaVuSans-109"/>
      <use x="214.404297" xlink:href="#DejaVuSans-98"/>
      <use x="277.880859" xlink:href="#DejaVuSans-101"/>
      <use x="339.404297" xlink:href="#DejaVuSans-114"/>
      <use x="380.517578" xlink:href="#DejaVuSans-116"/>
      <use x="419.726562" xlink:href="#DejaVuSans-45"/>
      <use x="455.810547" xlink:href="#DejaVuSans-83"/>
      <use x="519.287109" xlink:href="#DejaVuSans-116"/>
      <use x="558.496094" xlink:href="#DejaVuSans-32"/>
      <use x="590.283203" xlink:href="#DejaVuSans-76"/>
      <use x="645.980469" xlink:href="#DejaVuSans-111"/>
      <use x="707.162109" xlink:href="#DejaVuSans-117"/>
      <use x="770.541016" xlink:href="#DejaVuSans-105"/>
      <use x="798.324219" xlink:href="#DejaVuSans-115"/>
      <use x="850.423828" xlink:href="#DejaVuSans-32"/>
      <use x="882.210938" xlink:href="#DejaVuSans-73"/>
      <use x="911.703125" xlink:href="#DejaVuSans-110"/>
      <use x="975.082031" xlink:href="#DejaVuSans-116"/>
      <use x="1014.291016" xlink:href="#DejaVuSans-108"/>
     </g>
    </g>
   </g>
   <g id="text_7">
    <g clip-path="url(#p13d361c316)">
     <!-- San Francisco Intl -->
     <defs>
      <path d="M 9.8125 72.90625 
L 51.703125 72.90625 
L 51.703125 64.59375 
L 19.671875 64.59375 
L 19.671875 43.109375 
L 48.578125 43.109375 
L 48.578125 34.8125 
L 19.671875 34.8125 
L 19.671875 0 
L 9.8125 0 
z
" id="DejaVuSans-70"/>
     </defs>
     <g transform="translate(35.443815 198.50358)scale(0.12 -0.12)">
      <use xlink:href="#DejaVuSans-83"/>
      <use x="63.476562" xlink:href="#DejaVuSans-97"/>
      <use x="124.755859" xlink:href="#DejaVuSans-110"/>
      <use x="188.134766" xlink:href="#DejaVuSans-32"/>
      <use x="219.921875" xlink:href="#DejaVuSans-70"/>
      <use x="277.332031" xlink:href="#DejaVuSans-114"/>
      <use x="318.445312" xlink:href="#DejaVuSans-97"/>
      <use x="379.724609" xlink:href="#DejaVuSans-110"/>
      <use x="443.103516" xlink:href="#DejaVuSans-99"/>
      <use x="498.083984" xlink:href="#DejaVuSans-105"/>
      <use x="525.867188" xlink:href="#DejaVuSans-115"/>
      <use x="577.966797" xlink:href="#DejaVuSans-99"/>
      <use x="632.947266" xlink:href="#DejaVuSans-111"/>
      <use x="694.128906" xlink:href="#DejaVuSans-32"/>
      <use x="725.916016" xlink:href="#DejaVuSans-73"/>
      <use x="755.408203" xlink:href="#DejaVuSans-110"/>
      <use x="818.787109" xlink:href="#DejaVuSans-116"/>
      <use x="857.996094" xlink:href="#DejaVuSans-108"/>
     </g>
    </g>
   </g>
   <g id="text_8">
    <g clip-path="url(#p13d361c316)">
     <!-- Charlotte/Douglas Intl -->
     <g transform="translate(312.879744 237.782884)scale(0.12 -0.12)">
      <use xlink:href="#DejaVuSans-67"/>
      <use x="69.824219" xlink:href="#DejaVuSans-104"/>
      <use x="133.203125" xlink:href="#DejaVuSans-97"/>
      <use x="194.482422" xlink:href="#DejaVuSans-114"/>
      <use x="235.595703" xlink:href="#DejaVuSans-108"/>
      <use x="263.378906" xlink:href="#DejaVuSans-111"/>
      <use x="324.560547" xlink:href="#DejaVuSans-116"/>
      <use x="363.769531" xlink:href="#DejaVuSans-116"/>
      <use x="402.978516" xlink:href="#DejaVuSans-101"/>
      <use x="464.501953" xlink:href="#DejaVuSans-47"/>
      <use x="498.193359" xlink:href="#DejaVuSans-68"/>
      <use x="575.195312" xlink:href="#DejaVuSans-111"/>
      <use x="636.376953" xlink:href="#DejaVuSans-117"/>
      <use x="699.755859" xlink:href="#DejaVuSans-103"/>
      <use x="763.232422" xlink:href="#DejaVuSans-108"/>
      <use x="791.015625" xlink:href="#DejaVuSans-97"/>
      <use x="852.294922" xlink:href="#DejaVuSans-115"/>
      <use x="904.394531" xlink:href="#DejaVuSans-32"/>
      <use x="936.181641" xlink:href="#DejaVuSans-73"/>
      <use x="965.673828" xlink:href="#DejaVuSans-110"/>
      <use x="1029.052734" xlink:href="#DejaVuSans-116"/>
      <use x="1068.261719" xlink:href="#DejaVuSans-108"/>
     </g>
    </g>
   </g>
   <g id="text_9">
    <g clip-path="url(#p13d361c316)">
     <!-- The William B Hartsfield Atlan -->
     <defs>
      <path d="M -0.296875 72.90625 
L 61.375 72.90625 
L 61.375 64.59375 
L 35.5 64.59375 
L 35.5 0 
L 25.59375 0 
L 25.59375 64.59375 
L -0.296875 64.59375 
z
" id="DejaVuSans-84"/>
      <path d="M 19.671875 34.8125 
L 19.671875 8.109375 
L 35.5 8.109375 
Q 43.453125 8.109375 47.28125 11.40625 
Q 51.125 14.703125 51.125 21.484375 
Q 51.125 28.328125 47.28125 31.5625 
Q 43.453125 34.8125 35.5 34.8125 
z
M 19.671875 64.796875 
L 19.671875 42.828125 
L 34.28125 42.828125 
Q 41.5 42.828125 45.03125 45.53125 
Q 48.578125 48.25 48.578125 53.8125 
Q 48.578125 59.328125 45.03125 62.0625 
Q 41.5 64.796875 34.28125 64.796875 
z
M 9.8125 72.90625 
L 35.015625 72.90625 
Q 46.296875 72.90625 52.390625 68.21875 
Q 58.5 63.53125 58.5 54.890625 
Q 58.5 48.1875 55.375 44.234375 
Q 52.25 40.28125 46.1875 39.3125 
Q 53.46875 37.75 57.5 32.78125 
Q 61.53125 27.828125 61.53125 20.40625 
Q 61.53125 10.640625 54.890625 5.3125 
Q 48.25 0 35.984375 0 
L 9.8125 0 
z
" id="DejaVuSans-66"/>
      <path d="M 9.8125 72.90625 
L 19.671875 72.90625 
L 19.671875 43.015625 
L 55.515625 43.015625 
L 55.515625 72.90625 
L 65.375 72.90625 
L 65.375 0 
L 55.515625 0 
L 55.515625 34.71875 
L 19.671875 34.71875 
L 19.671875 0 
L 9.8125 0 
z
" id="DejaVuSans-72"/>
      <path d="M 37.109375 75.984375 
L 37.109375 68.5 
L 28.515625 68.5 
Q 23.6875 68.5 21.796875 66.546875 
Q 19.921875 64.59375 19.921875 59.515625 
L 19.921875 54.6875 
L 34.71875 54.6875 
L 34.71875 47.703125 
L 19.921875 47.703125 
L 19.921875 0 
L 10.890625 0 
L 10.890625 47.703125 
L 2.296875 47.703125 
L 2.296875 54.6875 
L 10.890625 54.6875 
L 10.890625 58.5 
Q 10.890625 67.625 15.140625 71.796875 
Q 19.390625 75.984375 28.609375 75.984375 
z
" id="DejaVuSans-102"/>
      <path d="M 34.1875 63.1875 
L 20.796875 26.90625 
L 47.609375 26.90625 
z
M 28.609375 72.90625 
L 39.796875 72.90625 
L 67.578125 0 
L 57.328125 0 
L 50.6875 18.703125 
L 17.828125 18.703125 
L 11.1875 0 
L 0.78125 0 
z
" id="DejaVuSans-65"/>
     </defs>
     <g transform="translate(264.594029 263.399821)scale(0.12 -0.12)">
      <use xlink:href="#DejaVuSans-84"/>
      <use x="61.083984" xlink:href="#DejaVuSans-104"/>
      <use x="124.462891" xlink:href="#DejaVuSans-101"/>
      <use x="185.986328" xlink:href="#DejaVuSans-32"/>
      <use x="217.773438" xlink:href="#DejaVuSans-87"/>
      <use x="316.619141" xlink:href="#DejaVuSans-105"/>
      <use x="344.402344" xlink:href="#DejaVuSans-108"/>
      <use x="372.185547" xlink:href="#DejaVuSans-108"/>
      <use x="399.96875" xlink:href="#DejaVuSans-105"/>
      <use x="427.751953" xlink:href="#DejaVuSans-97"/>
      <use x="489.03125" xlink:href="#DejaVuSans-109"/>
      <use x="586.443359" xlink:href="#DejaVuSans-32"/>
      <use x="618.230469" xlink:href="#DejaVuSans-66"/>
      <use x="686.833984" xlink:href="#DejaVuSans-32"/>
      <use x="718.621094" xlink:href="#DejaVuSans-72"/>
      <use x="793.816406" xlink:href="#DejaVuSans-97"/>
      <use x="855.095703" xlink:href="#DejaVuSans-114"/>
      <use x="896.208984" xlink:href="#DejaVuSans-116"/>
      <use x="935.417969" xlink:href="#DejaVuSans-115"/>
      <use x="987.517578" xlink:href="#DejaVuSans-102"/>
      <use x="1022.722656" xlink:href="#DejaVuSans-105"/>
      <use x="1050.505859" xlink:href="#DejaVuSans-101"/>
      <use x="1112.029297" xlink:href="#DejaVuSans-108"/>
      <use x="1139.8125" xlink:href="#DejaVuSans-100"/>
      <use x="1203.289062" xlink:href="#DejaVuSans-32"/>
      <use x="1235.076172" xlink:href="#DejaVuSans-65"/>
      <use x="1303.46875" xlink:href="#DejaVuSans-116"/>
      <use x="1342.677734" xlink:href="#DejaVuSans-108"/>
      <use x="1370.460938" xlink:href="#DejaVuSans-97"/>
      <use x="1431.740234" xlink:href="#DejaVuSans-110"/>
     </g>
    </g>
   </g>
   <g id="text_10">
    <g clip-path="url(#p13d361c316)">
     <!-- Dallas/Fort Worth Intl -->
     <g transform="translate(201.985998 275.695951)scale(0.12 -0.12)">
      <use xlink:href="#DejaVuSans-68"/>
      <use x="77.001953" xlink:href="#DejaVuSans-97"/>
      <use x="138.28125" xlink:href="#DejaVuSans-108"/>
      <use x="166.064453" xlink:href="#DejaVuSans-108"/>
      <use x="193.847656" xlink:href="#DejaVuSans-97"/>
      <use x="255.126953" xlink:href="#DejaVuSans-115"/>
      <use x="307.226562" xlink:href="#DejaVuSans-47"/>
      <use x="340.917969" xlink:href="#DejaVuSans-70"/>
      <use x="398.390625" xlink:href="#DejaVuSans-111"/>
      <use x="459.572266" xlink:href="#DejaVuSans-114"/>
      <use x="500.685547" xlink:href="#DejaVuSans-116"/>
      <use x="539.894531" xlink:href="#DejaVuSans-32"/>
      <use x="571.681641" xlink:href="#DejaVuSans-87"/>
      <use x="670.480469" xlink:href="#DejaVuSans-111"/>
      <use x="731.662109" xlink:href="#DejaVuSans-114"/>
      <use x="772.775391" xlink:href="#DejaVuSans-116"/>
      <use x="811.984375" xlink:href="#DejaVuSans-104"/>
      <use x="875.363281" xlink:href="#DejaVuSans-32"/>
      <use x="907.150391" xlink:href="#DejaVuSans-73"/>
      <use x="936.642578" xlink:href="#DejaVuSans-110"/>
      <use x="1000.021484" xlink:href="#DejaVuSans-116"/>
      <use x="1039.230469" xlink:href="#DejaVuSans-108"/>
     </g>
    </g>
   </g>
  </g>
 </g>
 <defs>
  <clipPath id="p13d361c316">
   <rect height="266.112" width="357.12" x="57.6" y="41.472"/>
  </clipPath>
 </defs>
</svg>
